<?xml version="1.0" standalone="no"?>
<!DOCTYPE svg PUBLIC "-//W3C//DTD SVG 20010904//EN"
 "http://www.w3.org/TR/2001/REC-SVG-20010904/DTD/svg10.dtd">
<svg version="1.0" xmlns="http://www.w3.org/2000/svg"
 width="1280.000000pt" height="1188.000000pt" viewBox="0 0 1280.000000 1188.000000"
 preserveAspectRatio="xMidYMid meet">
<metadata>
Created by potrace 1.15, written by Peter Selinger 2001-2017
</metadata>
<g transform="translate(0.000000,1188.000000) scale(0.100000,-0.100000)"
fill="#e91e63" stroke="none">
<path d="M3606 11329 c-32 -38 -37 -99 -22 -250 6 -53 4 -68 -8 -79 -42 -34
-111 6 -147 86 -28 61 -39 67 -115 62 -58 -4 -70 -8 -90 -32 -20 -23 -24 -38
-24 -97 0 -56 4 -76 22 -99 27 -37 16 -51 -15 -22 -29 27 -84 29 -116 5 -66
-49 -71 -59 -71 -127 0 -63 14 -116 32 -116 4 0 8 5 8 11 0 6 15 25 33 42 19
18 36 38 38 45 7 21 35 4 62 -36 17 -25 29 -63 37 -116 7 -44 16 -91 22 -105
5 -14 14 -50 19 -80 4 -30 17 -71 27 -92 l19 -38 -41 -63 c-30 -46 -65 -81
-128 -128 -48 -36 -100 -83 -116 -106 -16 -22 -46 -54 -66 -70 -62 -51 -143
-241 -152 -357 -9 -108 6 -150 77 -220 33 -32 79 -67 103 -78 24 -10 73 -37
108 -58 161 -98 375 -188 593 -250 503 -142 508 -143 785 -139 l203 3 73 -79
c41 -44 74 -84 74 -89 0 -5 -25 -36 -55 -69 -31 -33 -69 -83 -85 -111 -37 -64
-76 -182 -85 -262 -4 -33 -21 -86 -36 -117 -46 -92 -54 -146 -34 -230 16 -65
16 -71 2 -80 -13 -7 -16 -21 -12 -74 2 -44 -2 -90 -15 -140 -32 -125 -59 -282
-70 -413 -6 -69 -23 -172 -37 -230 -23 -89 -28 -127 -28 -241 0 -162 7 -182
115 -321 76 -99 76 -98 46 -174 -16 -42 -21 -131 -8 -138 4 -3 7 20 8 52 1 53
28 140 40 128 3 -3 -3 -20 -12 -39 -29 -53 -24 -142 10 -202 l29 -50 -16 -70
c-9 -39 -23 -113 -31 -165 -8 -52 -19 -98 -24 -103 -5 -5 -41 -13 -79 -18 -79
-10 -100 -17 -106 -34 -3 -7 17 -46 45 -87 97 -145 93 -130 74 -314 -8 -88
-20 -214 -26 -280 -6 -66 -17 -176 -25 -245 -8 -69 -19 -174 -25 -235 -18
-209 -46 -363 -73 -404 -78 -118 -123 -248 -136 -396 -6 -74 -9 -87 -11 -50
-1 28 -2 54 -1 58 1 5 -3 5 -9 2 -6 -4 -19 2 -29 14 -18 21 -39 17 -21 -4 7
-8 5 -12 -5 -12 -8 0 -15 5 -15 10 0 5 -7 7 -15 3 -8 -3 -15 -1 -15 4 0 5 -9
14 -20 20 -14 7 -20 7 -20 0 0 -5 7 -10 17 -10 9 0 14 -3 10 -6 -3 -3 -19 0
-36 7 -21 10 -27 17 -20 25 7 8 6 15 -2 20 -7 4 -16 -1 -21 -10 -9 -16 -11
-16 -25 1 -8 10 -11 11 -7 3 7 -13 6 -13 -10 -1 -9 8 -15 19 -12 26 2 6 -2 12
-10 12 -7 0 -11 -4 -8 -9 3 -4 1 -15 -4 -24 -8 -15 -10 -15 -15 0 -4 9 -14 16
-22 16 -10 0 -14 -5 -10 -12 4 -7 -1 -4 -9 6 -9 11 -16 16 -16 10 0 -5 -5 -2
-11 6 -9 12 -10 11 -6 -5 3 -15 -1 -21 -13 -21 -10 0 -16 6 -13 12 3 8 -3 11
-14 9 -10 -2 -22 -4 -26 -4 -5 -1 -5 -7 -1 -13 6 -10 3 -9 -8 0 -9 8 -14 21
-12 30 5 15 4 15 -6 -1 -6 -9 -8 -22 -5 -27 3 -6 -1 -10 -10 -10 -11 0 -15 5
-11 15 4 12 2 13 -13 6 -10 -6 -21 -7 -25 -4 -3 3 -6 1 -6 -6 0 -7 -4 -10 -8
-7 -4 2 -14 0 -22 -5 -11 -6 -5 -8 17 -4 31 5 60 -14 35 -23 -7 -2 -10 -7 -8
-11 7 -10 -46 -8 -62 3 -11 7 -12 4 -3 -12 14 -26 14 -42 1 -42 -5 0 -10 7
-10 15 0 13 -2 14 -14 3 -12 -11 -11 -14 5 -20 24 -9 25 -20 2 -11 -15 5 -15
3 1 -9 11 -9 21 -28 23 -44 2 -24 1 -26 -6 -9 -5 12 -16 26 -24 33 -13 11 -15
10 -12 -5 1 -10 8 -17 14 -15 18 4 13 -15 -6 -22 -14 -6 -15 -9 -4 -16 8 -4
21 -6 30 -3 12 3 11 1 -3 -11 -10 -8 -23 -13 -27 -10 -5 3 -9 -5 -9 -16 0 -15
5 -20 15 -17 8 4 17 2 20 -3 4 -6 2 -10 -3 -10 -5 0 -12 -9 -15 -21 -4 -15 -2
-19 9 -15 9 4 14 -2 15 -17 2 -28 2 -29 -5 -47 -4 -10 4 -21 21 -32 16 -10 22
-18 16 -18 -20 0 -15 -31 7 -50 13 -12 17 -21 10 -25 -6 -3 -8 -11 -4 -16 3
-5 8 -7 12 -5 4 2 16 -8 26 -22 11 -14 14 -22 8 -18 -7 4 -12 2 -12 -3 0 -6 4
-11 10 -11 5 0 17 -16 26 -35 9 -19 20 -35 25 -35 5 0 5 -7 2 -17 -4 -10 -2
-14 5 -9 13 8 63 -44 55 -57 -3 -6 -2 -7 4 -4 5 4 16 -5 23 -19 8 -13 19 -23
26 -20 8 3 11 0 8 -8 -3 -7 14 -34 38 -58 24 -25 45 -49 47 -54 16 -33 39 -63
44 -57 4 3 7 -1 7 -10 0 -10 5 -17 10 -17 6 0 10 -7 10 -15 0 -8 9 -15 21 -15
11 0 17 -5 14 -10 -3 -6 -2 -10 3 -10 5 0 31 -21 58 -46 26 -25 50 -41 52 -35
2 6 13 0 23 -14 11 -13 23 -24 27 -24 4 1 14 1 22 0 12 -1 12 -3 2 -10 -10 -6
-5 -17 21 -46 22 -23 33 -44 29 -54 -3 -9 -2 -13 2 -9 5 4 17 -2 29 -12 11
-11 24 -17 29 -14 4 3 8 0 8 -6 0 -6 6 -10 13 -8 6 1 26 -6 44 -15 17 -9 40
-14 49 -10 13 5 15 3 9 -7 -6 -10 -2 -11 19 -6 15 4 25 3 23 -2 -3 -4 6 -8 21
-7 15 0 29 -3 32 -7 3 -4 21 -10 40 -13 19 -3 37 -11 41 -17 4 -6 12 -7 19 -3
9 5 11 4 6 -3 -9 -16 7 -15 22 0 9 9 12 8 12 -5 0 -9 7 -17 15 -17 14 0 53
-18 65 -30 5 -5 16 -7 64 -14 11 -1 20 -10 22 -19 3 -20 -12 -23 -19 -4 -2 6
-7 9 -11 6 -12 -11 23 -37 42 -32 10 2 24 -2 31 -11 7 -8 20 -12 29 -9 15 4
15 3 2 -6 -20 -15 -26 -14 -46 7 -17 16 -18 16 -11 0 3 -10 2 -18 -4 -18 -6 0
-7 -5 -3 -11 5 -8 9 -8 14 1 4 7 13 9 19 6 6 -4 9 -11 6 -16 -3 -5 4 -12 15
-15 17 -6 19 -9 9 -22 -9 -10 -9 -17 -2 -21 5 -4 16 -18 23 -31 10 -19 10 -25
-1 -33 -11 -8 -10 -9 3 -5 12 4 20 -3 27 -25 9 -26 8 -33 -7 -45 -15 -13 -15
-13 6 -3 13 7 27 8 30 4 4 -4 1 -9 -5 -11 -7 -3 -13 -9 -13 -14 0 -6 4 -7 10
-4 6 3 10 2 10 -4 0 -5 -6 -12 -12 -14 -8 -3 -5 -6 6 -6 13 -1 16 -4 8 -13 -7
-9 -6 -17 3 -25 11 -10 15 -9 18 5 3 9 3 0 2 -20 -2 -27 1 -38 11 -38 8 0 14
-4 14 -10 0 -5 -4 -10 -10 -10 -5 0 -10 -5 -10 -11 0 -5 5 -7 11 -4 5 4 25 9
42 11 27 3 29 2 10 -6 -15 -6 -20 -15 -16 -30 4 -13 11 -19 20 -16 8 3 19 6
24 6 6 0 8 4 4 9 -3 5 -1 12 4 15 5 4 8 -2 7 -11 -2 -9 -8 -19 -15 -21 -9 -3
-9 -7 0 -18 9 -11 8 -15 -6 -20 -13 -5 -14 -9 -4 -15 8 -4 18 -1 25 9 11 15
14 15 37 -1 23 -15 37 -14 37 5 0 4 -8 8 -17 9 -12 0 -13 2 -5 6 16 6 44 -16
35 -30 -3 -5 -1 -7 4 -4 6 4 13 0 17 -8 3 -8 12 -12 21 -9 8 4 15 1 15 -7 0
-7 3 -9 8 -5 4 4 7 13 7 19 0 7 8 13 18 15 9 2 17 -1 17 -6 0 -5 8 -19 19 -31
16 -18 20 -19 25 -6 4 11 12 14 27 10 13 -5 19 -3 15 3 -3 5 1 12 9 15 10 4
12 1 8 -10 -5 -12 -1 -14 16 -8 12 3 20 3 19 -2 -2 -4 2 -10 7 -11 6 -2 16 -9
23 -15 8 -6 23 -12 34 -14 11 -2 26 -10 35 -18 11 -11 19 -13 27 -6 9 8 19 3
36 -16 25 -29 26 -29 68 33 7 11 5 4 -3 -14 -9 -18 -23 -68 -31 -110 -8 -42
-28 -133 -45 -201 -32 -128 -32 -140 -5 -238 12 -43 13 -65 4 -113 -11 -57 -4
-131 17 -195 l7 -20 -17 20 c-9 11 -24 30 -35 42 -34 39 -58 93 -41 93 5 0 6
11 3 25 -2 14 -8 23 -12 20 -4 -2 -7 12 -8 32 -1 22 -8 41 -17 45 -8 5 -15 14
-15 21 0 7 -11 24 -25 39 -14 15 -25 32 -25 38 0 5 -8 10 -17 10 -9 0 -13 3
-10 7 10 10 -44 64 -56 56 -6 -3 -7 -1 -3 6 4 6 0 14 -8 17 -9 3 -13 10 -11
15 3 5 -6 11 -21 15 -19 5 -22 9 -12 15 10 7 9 9 -4 9 -10 0 -18 5 -18 10 0 6
-11 8 -25 6 -13 -3 -28 0 -31 6 -5 7 0 9 14 6 12 -4 22 -2 22 2 0 17 -17 19
-38 4 -24 -16 -20 -40 8 -47 13 -3 17 -11 13 -26 -3 -14 0 -23 11 -27 9 -3 16
-12 16 -20 0 -8 3 -14 8 -14 4 0 13 -14 21 -31 8 -18 24 -41 37 -52 13 -11 24
-27 24 -34 0 -7 5 -13 10 -13 6 0 10 -7 10 -15 0 -8 5 -15 10 -15 6 0 10 -9
10 -20 0 -10 10 -30 23 -42 12 -13 38 -44 57 -68 39 -50 171 -180 183 -180 4
0 7 36 7 80 0 61 3 80 14 80 42 0 78 125 75 263 -2 98 0 110 31 188 33 83 93
168 118 169 10 0 9 -4 -2 -16 -9 -8 -16 -17 -16 -20 0 -7 25 1 32 11 7 9 8 6
8 -20 0 -12 42 -45 50 -40 6 4 7 -1 3 -11 -5 -13 -3 -15 7 -9 9 5 11 4 6 -3
-4 -7 -4 -17 0 -23 4 -8 9 -7 15 2 6 10 9 10 9 2 0 -7 6 -10 14 -7 9 4 18 -6
26 -30 8 -26 16 -34 30 -31 13 3 17 -1 13 -11 -3 -8 0 -14 6 -14 6 0 10 -6 9
-12 -2 -7 5 -12 15 -10 9 2 17 -2 17 -9 0 -6 7 -9 14 -6 11 4 13 1 9 -11 -3
-9 -3 -14 2 -10 10 9 38 -19 31 -31 -3 -5 4 -7 16 -4 19 4 20 3 8 -6 -13 -9
-13 -11 1 -11 10 0 20 -11 23 -25 4 -14 13 -25 21 -25 8 0 15 -4 15 -10 0 -5
-8 -7 -17 -4 -14 5 -15 4 -4 -4 8 -6 20 -8 28 -5 9 3 11 0 7 -10 -3 -8 0 -18
7 -23 8 -5 10 -3 5 7 -4 8 1 4 12 -8 11 -12 23 -19 27 -15 5 4 4 0 -1 -8 -13
-22 -15 -50 -4 -50 6 0 10 4 10 9 0 5 8 12 18 16 14 5 15 4 5 -6 -15 -15 -17
-33 -3 -24 5 3 22 -1 37 -10 16 -9 20 -14 10 -11 -11 4 -16 2 -11 -5 3 -6 15
-8 26 -6 19 5 19 5 2 -21 -17 -27 -17 -27 3 -10 28 25 40 22 17 -4 -10 -12
-13 -18 -6 -14 7 4 24 1 37 -8 14 -9 25 -13 25 -9 0 4 7 -2 16 -13 8 -10 13
-12 9 -4 -4 10 -2 9 8 -2 8 -10 21 -18 30 -18 9 0 20 -6 24 -12 8 -14 24 -24
88 -59 22 -11 42 -24 45 -28 3 -3 17 -14 31 -23 15 -9 54 -42 88 -74 34 -31
61 -51 61 -46 0 14 -71 135 -85 144 -5 4 -6 8 -2 8 5 0 2 7 -7 15 -8 8 -13 25
-11 36 3 12 2 19 -2 16 -9 -9 -35 21 -28 33 4 6 -1 7 -12 3 -16 -6 -17 -5 -3
12 13 17 13 18 0 13 -10 -4 -16 0 -16 12 0 11 6 15 18 12 10 -2 18 1 18 7 0 7
3 10 8 8 4 -2 16 5 26 16 16 17 16 19 3 14 -21 -8 -79 12 -71 24 3 5 2 8 -3 7
-15 -4 -73 21 -73 31 0 6 -9 11 -21 11 -11 0 -18 3 -16 8 6 8 -19 33 -26 26
-3 -3 -15 9 -27 26 -12 18 -28 29 -36 26 -9 -3 -11 0 -7 11 5 12 2 15 -10 10
-10 -4 -16 -2 -14 6 1 7 -5 11 -13 9 -12 -3 -12 0 1 13 16 16 18 16 38 -4 12
-12 27 -21 35 -21 8 0 17 -7 20 -16 3 -8 10 -13 15 -10 5 3 27 -12 50 -33 22
-21 41 -37 41 -34 0 2 6 -2 14 -9 8 -7 11 -17 8 -23 -2 -5 1 -4 9 2 7 7 18 13
24 13 5 0 4 -4 -4 -9 -10 -7 -5 -11 18 -16 17 -3 31 -11 31 -17 0 -6 9 -8 19
-5 23 6 31 -16 31 -90 0 -79 18 -148 46 -174 20 -18 24 -32 24 -76 0 -29 4
-53 9 -53 23 0 61 129 61 207 0 31 1 33 16 19 8 -9 22 -16 30 -16 27 0 97 -47
149 -100 27 -27 53 -50 58 -50 4 0 17 20 28 44 18 41 19 59 13 202 -7 156 -7
157 -38 198 -31 41 -69 135 -101 251 -22 80 -34 97 -105 145 -84 57 -251 216
-273 259 -9 19 -75 93 -145 162 -142 142 -237 246 -237 259 0 4 -3 12 -7 16
-4 4 -2 14 4 22 8 10 12 59 13 151 0 118 4 147 27 221 39 126 67 228 78 290 6
30 32 127 59 215 26 88 64 221 84 295 84 313 99 361 143 466 25 60 51 127 56
149 6 22 16 56 23 75 35 97 38 139 30 445 -6 252 -4 315 9 386 8 46 20 131 26
189 10 93 62 397 76 442 5 16 9 15 42 -6 21 -13 67 -38 102 -56 36 -18 90 -49
120 -69 83 -57 263 -131 585 -241 277 -95 335 -124 680 -340 138 -86 166 -108
280 -224 55 -56 126 -119 159 -141 32 -22 83 -69 114 -105 30 -36 63 -69 72
-75 10 -5 36 -32 57 -60 94 -118 250 -248 338 -282 43 -16 87 -43 115 -68 25
-22 81 -72 124 -110 43 -38 101 -97 129 -130 27 -33 102 -116 166 -183 118
-126 210 -261 211 -310 0 -37 31 -93 55 -102 21 -8 22 -12 13 -59 -6 -33 -5
-78 1 -123 10 -73 8 -97 -4 -59 -7 23 -46 38 -66 25 -8 -5 -9 -3 -4 6 5 8 3
11 -6 8 -8 -3 -24 -2 -35 3 -14 5 -29 2 -43 -7 -23 -16 -29 -6 -8 15 10 10 8
11 -8 5 -11 -4 -25 -13 -32 -21 -10 -13 -14 -12 -32 6 -18 18 -20 18 -24 3 -4
-14 -5 -13 -6 3 -1 17 -3 18 -11 5 -8 -12 -11 -13 -19 -1 -6 9 -11 10 -15 2
-4 -6 -16 -11 -27 -11 -11 0 -17 -5 -14 -10 4 -7 14 -6 28 1 20 9 20 9 4 -4
-11 -9 -15 -22 -11 -33 5 -16 4 -16 -5 -4 -9 13 -11 11 -11 -7 0 -12 11 -35
25 -51 14 -17 25 -35 25 -42 0 -6 4 -8 10 -5 6 4 7 -5 4 -23 -5 -25 -2 -31 15
-37 12 -3 21 -13 21 -21 0 -8 6 -13 13 -12 7 2 11 -5 9 -16 -3 -14 1 -17 12
-13 9 4 16 2 16 -2 0 -5 -6 -12 -13 -14 -9 -4 -9 -6 1 -6 6 -1 12 -8 12 -16 0
-8 5 -15 11 -15 5 0 8 -4 5 -9 -3 -5 1 -11 9 -15 8 -3 12 -12 9 -21 -5 -11 -2
-14 10 -9 11 4 23 -1 32 -12 9 -11 12 -12 8 -4 -7 12 -5 13 8 3 8 -7 19 -9 23
-5 5 4 5 -1 2 -10 -4 -11 -2 -15 6 -12 7 2 23 -5 35 -16 12 -12 27 -18 34 -14
7 5 9 2 6 -7 -4 -10 3 -15 25 -16 20 0 37 -9 45 -22 8 -12 21 -21 28 -21 8 0
33 -12 57 -27 57 -37 78 -50 105 -64 12 -7 22 -16 22 -21 0 -4 9 -8 19 -8 11
0 23 -4 26 -10 3 -5 23 -17 43 -26 20 -9 75 -35 122 -58 47 -22 89 -40 94 -38
4 1 13 -2 20 -7 14 -12 101 -42 136 -47 58 -8 167 -5 195 6 17 7 43 14 59 16
16 2 41 12 55 21 14 10 35 22 46 28 11 6 20 16 20 22 0 6 3 15 8 19 11 11 9
36 -3 29 -5 -3 -10 -1 -10 4 0 6 8 11 18 11 23 1 44 18 70 62 12 20 29 39 37
42 17 6 11 79 -11 133 -22 56 -95 144 -140 172 -25 14 -89 58 -142 97 -81 59
-109 87 -161 160 -34 49 -79 121 -100 159 -55 104 -119 192 -162 227 -21 17
-43 46 -50 65 -8 26 -40 58 -130 129 -89 72 -130 113 -163 162 -43 66 -129
261 -201 457 -61 164 -134 334 -187 435 -28 52 -72 138 -99 190 -48 96 -151
229 -206 267 -15 11 -66 40 -113 64 -82 42 -164 113 -261 224 -54 61 -254 250
-328 309 -36 29 -133 116 -216 192 -82 77 -189 172 -238 212 -105 88 -115 98
-402 381 l-227 223 11 56 c21 106 12 152 -31 152 -10 0 -50 -16 -88 -35 -38
-19 -76 -35 -84 -35 -8 0 -32 21 -52 46 -21 25 -54 54 -75 65 -21 10 -57 39
-81 65 -57 61 -102 83 -167 82 -46 -1 -55 2 -81 30 -16 18 -35 32 -42 33 -32
1 -60 59 -69 142 -17 158 -33 216 -127 482 -67 189 -67 192 -39 199 22 5 67
79 67 111 0 23 50 75 73 75 38 0 51 16 49 57 -2 26 4 46 19 63 11 14 18 20 15
13 -4 -6 -2 -14 4 -18 6 -4 8 -11 5 -16 -4 -5 -1 -9 4 -9 6 0 11 -8 11 -17 0
-10 4 -25 10 -33 7 -12 12 -11 30 5 12 11 26 29 32 40 5 11 -1 7 -15 -10 -31
-36 -42 -28 -41 31 1 39 -1 42 -13 26 -14 -17 -14 -11 -2 108 0 8 5 4 10 -10
8 -22 8 -22 3 5 -3 17 -8 42 -11 58 -3 15 -2 27 3 27 5 0 19 -12 31 -27 l23
-28 -12 30 c-6 17 -18 37 -25 46 -19 23 -16 34 5 18 12 -10 12 -8 -3 10 -16
18 -20 36 -19 85 2 74 41 244 63 270 9 11 10 16 4 12 -9 -5 -13 -1 -13 11 0
10 20 31 48 49 26 16 46 36 45 42 -2 7 3 11 9 9 7 -1 19 13 27 31 15 34 34 45
25 15 -3 -12 -1 -10 6 3 7 11 25 28 41 38 16 9 29 24 29 32 0 8 8 18 18 21 22
9 32 23 32 51 0 13 6 22 15 22 8 0 15 6 16 13 2 21 -3 82 -6 85 -2 2 -43 -1
-91 -7 -48 -6 -89 -9 -90 -8 -2 2 8 30 21 63 16 39 25 79 25 117 0 79 -27 300
-45 362 -20 68 -100 227 -110 217 -5 -4 -5 -2 -1 5 8 14 -70 118 -95 128 -13
4 -15 15 -12 48 6 52 -24 144 -62 190 -75 89 -173 149 -330 198 -55 17 -109
40 -121 50 -11 10 -24 19 -28 19 -5 0 -24 14 -43 30 -40 35 -47 36 -98 10 -22
-11 -51 -19 -65 -19 -24 1 -23 2 5 9 28 7 27 8 -15 10 -25 1 -56 4 -70 5 -34
4 -147 -20 -164 -34 -8 -6 -18 -11 -22 -10 -5 1 -22 -1 -39 -5 -16 -4 -57 -14
-90 -22 -71 -18 -199 -90 -253 -145 -22 -21 -46 -39 -54 -39 -8 0 -31 -17 -50
-37 -19 -21 -76 -75 -126 -121 -60 -55 -95 -95 -102 -118 -12 -34 -24 -43 -35
-24 -3 6 -14 10 -23 10 -15 0 -15 -2 -2 -10 8 -5 10 -10 4 -10 -15 0 -36 19
-73 68 -18 23 -41 42 -50 42 -25 0 -51 -32 -51 -61 0 -14 -9 -30 -21 -37 -16
-10 -19 -19 -14 -39 3 -14 1 -30 -4 -37 -23 -27 -37 -92 -30 -136 3 -25 2 -50
-3 -57 -6 -8 -4 -20 6 -35 8 -13 18 -41 21 -64 7 -38 4 -42 -35 -80 -24 -21
-65 -61 -92 -88 -54 -53 -51 -52 -163 -23 -81 22 -260 47 -329 47 -32 0 -99
-5 -149 -11 -85 -10 -100 -9 -207 15 -63 14 -173 43 -245 65 -341 101 -416
121 -500 136 -49 8 -102 17 -116 21 l-27 5 22 51 c13 32 37 64 64 86 29 24 42
41 39 53 -5 18 23 49 80 88 18 12 40 38 49 57 16 34 16 36 -6 66 -20 28 -21
32 -6 40 9 5 16 20 16 33 0 19 9 26 53 41 28 9 100 43 159 76 l106 59 70 -6
c48 -5 76 -3 92 5 21 11 26 10 44 -12 44 -53 94 -62 125 -22 16 21 21 41 21
90 0 78 -24 112 -85 120 -22 4 -58 15 -81 25 -22 10 -57 19 -78 19 -76 0 -146
64 -166 152 -29 130 -29 248 1 248 13 0 28 59 34 142 6 77 5 86 -17 118 -50
74 -137 61 -158 -22 -15 -59 -49 -139 -68 -161 -9 -10 -25 -17 -36 -15 -38 5
-51 53 -52 188 -2 157 0 146 -26 170 -35 32 -90 27 -122 -11z m-267 -396 c7
-14 8 -29 4 -33 -13 -12 -93 -19 -93 -8 0 10 60 68 71 68 3 0 11 -12 18 -27z
m3151 -483 c-14 -4 -34 -8 -45 -8 -16 0 -15 2 5 8 14 4 34 8 45 8 16 0 15 -2
-5 -8z m-630 -334 c0 -2 -8 -10 -17 -17 -16 -13 -17 -12 -4 4 13 16 21 21 21
13z m-1020 -1489 c0 -2 -10 -12 -22 -23 l-23 -19 19 23 c18 21 26 27 26 19z
m-7 -50 c-11 -12 -32 -40 -48 -62 -15 -22 -25 -35 -23 -28 5 19 82 122 87 117
2 -2 -5 -14 -16 -27z m3 -88 c-25 -33 -46 -58 -46 -54 0 12 83 126 88 121 2
-3 -16 -33 -42 -67z m-86 21 c-6 -11 -13 -20 -16 -20 -2 0 0 9 6 20 6 11 13
20 16 20 2 0 0 -9 -6 -20z m104 -59 c-21 -28 -40 -49 -42 -47 -4 5 71 105 76
100 2 -1 -13 -25 -34 -53z m-131 14 c-3 -9 -8 -14 -10 -11 -3 3 -2 9 2 15 9
16 15 13 8 -4z m-27 -66 c-9 -19 -15 -29 -16 -22 0 15 22 64 27 60 2 -2 -3
-19 -11 -38z m-83 -2262 c19 -47 21 -67 8 -67 -16 0 -29 25 -33 68 -2 23 -1
42 2 42 3 0 13 -19 23 -43z m9 -115 c-3 -9 -10 -3 -18 18 -19 44 -17 50 5 21
10 -14 16 -31 13 -39z m1787 -399 c60 -19 58 -9 31 -176 -10 -67 -22 -156 -25
-197 -3 -41 -8 -93 -12 -115 -3 -22 -5 -83 -4 -135 3 -148 -27 -330 -90 -551
-51 -177 -69 -281 -69 -394 0 -154 -29 -703 -50 -946 -21 -249 -36 -352 -76
-548 -29 -143 -42 -184 -95 -302 -22 -48 -39 -95 -39 -105 0 -11 -14 -48 -31
-84 -17 -36 -39 -105 -50 -153 -15 -69 -31 -108 -74 -179 -53 -87 -72 -111
-39 -47 16 31 11 94 -7 83 -5 -3 -9 2 -9 10 0 10 -6 13 -17 9 -11 -4 -14 -3
-9 5 4 7 0 14 -11 18 -10 3 -26 10 -36 15 -11 6 -22 8 -25 5 -3 -3 0 -6 7 -6
7 0 9 -5 5 -11 -3 -6 -14 2 -25 20 -20 33 -32 41 -23 16 4 -11 2 -13 -9 -9 -9
3 -13 13 -9 26 4 17 2 20 -11 15 -10 -4 -17 -2 -17 4 0 6 -5 7 -10 4 -14 -9
-42 14 -33 28 3 5 1 7 -5 3 -6 -3 -13 -2 -17 4 -3 5 -1 10 4 10 6 0 11 4 11 9
0 5 -9 7 -21 4 -13 -4 -18 -11 -14 -22 5 -11 1 -10 -13 4 -10 11 -15 22 -10
24 6 2 -2 11 -18 21 -20 14 -33 16 -51 9 -16 -6 -22 -5 -18 1 3 6 -2 10 -12
11 -10 0 -13 3 -6 5 9 4 7 14 -5 39 -9 19 -21 35 -25 35 -4 0 -3 -9 3 -20 12
-22 1 -27 -19 -8 -11 10 -13 10 -7 1 4 -7 5 -13 2 -13 -2 0 -13 -3 -23 -6 -14
-5 -15 -4 -3 4 12 9 12 14 -4 31 -11 12 -14 21 -8 21 7 0 12 -4 12 -10 0 -5 4
-10 9 -10 5 0 4 11 -2 24 -8 16 -14 21 -19 13 -6 -9 -8 -9 -8 1 0 6 -9 12 -20
12 -11 0 -20 -5 -20 -12 0 -6 -3 -8 -6 -5 -4 4 -1 13 6 22 7 9 10 19 6 22 -4
4 -12 1 -17 -7 -8 -11 -10 -8 -6 13 5 34 -19 38 -33 5 -9 -23 -9 -23 -7 2 1
14 6 31 10 38 5 6 5 17 1 23 -3 6 0 15 7 20 11 6 11 11 1 21 -9 9 -12 9 -12
-5 0 -18 -15 -23 -24 -8 -4 5 -1 11 5 13 8 3 6 10 -5 21 -10 9 -13 17 -7 17 6
0 11 5 11 11 0 6 -9 8 -22 4 -18 -5 -20 -4 -8 4 8 6 24 8 34 5 15 -5 18 -3 13
11 -4 9 -7 21 -7 27 0 6 -6 6 -15 -2 -9 -8 -15 -8 -15 -2 0 6 9 14 21 17 13 4
18 12 15 22 -5 11 -1 13 17 8 20 -5 20 -5 -3 9 -14 9 -21 15 -16 16 5 0 2 8
-5 17 -8 9 -9 14 -2 10 6 -4 22 -3 35 2 21 9 19 11 -12 15 -5 0 -9 6 -7 11 1
6 6 9 11 7 12 -4 37 19 31 29 -3 4 -13 6 -23 3 -14 -5 -14 -4 -3 4 8 6 20 8
28 5 17 -7 17 5 -1 23 -13 12 -16 12 -25 -3 -6 -10 -11 -13 -11 -7 0 6 7 17
16 25 8 7 13 21 11 31 -3 10 -2 18 3 18 9 0 23 37 23 63 0 20 8 22 26 5 11
-11 11 -9 0 9 -7 12 -20 20 -31 18 -11 -3 -16 0 -12 7 4 5 1 14 -5 18 -15 9
-22 60 -9 60 5 0 7 4 4 9 -4 5 0 11 6 14 9 3 8 10 -6 23 -18 18 -18 18 -13 1
4 -11 3 -16 -4 -12 -5 4 -7 15 -4 26 5 14 3 17 -9 13 -12 -5 -15 -2 -10 10 5
12 0 19 -15 23 -21 5 -21 6 -4 27 14 16 14 18 2 8 -14 -10 -18 -10 -22 2 -3 7
-1 18 4 23 6 6 4 10 -6 10 -14 0 -20 -17 -15 -42 1 -5 -4 -4 -11 3 -19 18 -29
15 -30 -10 0 -13 -3 -17 -6 -11 -2 7 6 52 20 100 63 226 80 295 132 528 89
400 170 671 252 845 19 41 46 107 60 145 14 39 32 83 41 100 23 46 88 231 182
520 24 72 49 142 57 158 7 15 22 60 33 100 10 39 29 98 42 130 23 57 24 58 56
52 20 -4 39 -1 48 6 8 6 38 13 66 14 61 3 87 -13 89 -54 l1 -26 8 25 c8 24 8
24 9 -7 1 -41 21 -54 21 -14 0 16 4 32 9 35 5 4 7 -11 4 -34 -7 -48 2 -51 21
-7 14 31 14 31 15 6 1 -14 4 -29 8 -32 8 -9 37 39 46 76 4 15 14 27 22 27 8 0
15 7 15 15 0 19 6 19 69 -2z m-2792 -2068 c0 -8 -4 -12 -9 -9 -4 3 -8 9 -8 15
0 5 4 9 8 9 5 0 9 -7 9 -15z m1561 -696 c10 -13 10 -18 0 -22 -8 -3 -14 5 -14
20 -1 13 -1 23 0 21 1 -2 7 -10 14 -19z m0 -647 c2 -7 -1 -12 -7 -12 -6 0 -11
5 -11 11 0 5 -5 7 -12 3 -7 -4 -8 -3 -4 5 9 14 28 10 34 -7z m-182 -164 c10
-12 14 -18 7 -15 -6 4 -13 4 -16 0 -2 -5 -2 -2 -1 5 2 6 -1 12 -6 12 -6 0 -10
5 -10 10 0 15 5 12 26 -12z m359 -28 c3 -6 -1 -7 -9 -4 -18 7 -21 14 -7 14 6
0 13 -4 16 -10z m94 -44 c9 -11 9 -16 0 -22 -8 -4 -9 -3 -5 4 4 7 2 12 -3 12
-6 0 -11 5 -11 10 0 14 5 13 19 -4z m281 -176 c0 -5 -2 -10 -4 -10 -3 0 -8 5
-11 10 -3 6 -1 10 4 10 6 0 11 -4 11 -10z m-630 -10 c0 -5 -5 -10 -11 -10 -5
0 -7 5 -4 10 3 6 8 10 11 10 2 0 4 -4 4 -10z m71 -93 c-10 -9 -11 -8 -5 6 3
10 9 15 12 12 3 -3 0 -11 -7 -18z m129 -51 c0 -2 -7 -7 -16 -10 -8 -3 -12 -2
-9 4 6 10 25 14 25 6z m88 -31 c-3 -3 -9 2 -12 12 -6 14 -5 15 5 6 7 -7 10
-15 7 -18z m382 21 c0 -2 -8 -10 -17 -17 -16 -13 -17 -12 -4 4 13 16 21 21 21
13z m270 -220 c0 -8 -61 -12 -66 -4 -3 4 11 8 30 8 20 0 36 -2 36 -4z m125 -6
c19 -5 6 -6 -35 -3 -36 3 -67 7 -69 9 -8 7 73 2 104 -6z m72 -16 c-3 -3 -12
-4 -19 -1 -8 3 -5 6 6 6 11 1 17 -2 13 -5z m46 -11 c-7 -2 -19 -2 -25 0 -7 3
-2 5 12 5 14 0 19 -2 13 -5z m47 -13 c8 -5 11 -10 5 -10 -5 0 -17 5 -25 10 -8
5 -10 10 -5 10 6 0 17 -5 25 -10z m160 -96 c0 -2 -9 0 -20 6 -11 6 -20 13 -20
16 0 2 9 0 20 -6 11 -6 20 -13 20 -16z m-65 -84 c3 -5 2 -10 -4 -10 -5 0 -13
5 -16 10 -3 6 -2 10 4 10 5 0 13 -4 16 -10z m632 -112 l52 -53 -2 -82 c-1 -72
1 -85 21 -106 14 -15 20 -30 16 -40 -8 -22 -23 -22 -31 1 -8 20 -18 34 -54 73
-28 30 -109 204 -109 235 -1 11 -7 30 -15 44 -8 14 -14 28 -15 32 0 14 86 -51
137 -104z m-574 67 c19 -27 8 -34 -16 -10 -8 8 -17 11 -21 8 -3 -4 -6 -2 -6 4
0 11 10 23 19 23 3 0 14 -12 24 -25z m41 -27 c-4 -6 0 -14 7 -19 7 -4 10 -11
5 -16 -4 -4 -12 0 -17 10 -6 9 -15 15 -20 11 -6 -3 -5 3 2 14 7 12 17 18 21
16 5 -3 5 -10 2 -16z m720 -444 c17 -15 26 -33 26 -51 -1 -26 -1 -27 -12 -8
-6 11 -32 47 -59 80 l-47 60 21 29 21 29 11 -58 c9 -42 20 -65 39 -81z"/>
<path d="M6357 5623 c-4 -3 -7 -11 -7 -17 0 -6 5 -5 12 2 6 6 9 14 7 17 -3 3
-9 2 -12 -2z"/>
<path d="M5226 2925 c-11 -8 -14 -15 -7 -15 7 0 9 -4 6 -10 -3 -5 -2 -10 3
-10 5 0 12 11 14 25 3 14 5 25 4 25 0 0 -10 -7 -20 -15z"/>
<path d="M5227 2874 c-11 -11 3 -24 18 -18 8 4 12 10 9 15 -6 11 -18 12 -27 3z"/>
<path d="M5250 2836 c0 -2 7 -9 15 -16 12 -10 15 -10 15 4 0 9 -7 16 -15 16
-8 0 -15 -2 -15 -4z"/>
<path d="M5244 2802 c-22 -15 -24 -41 -3 -53 11 -6 24 -7 27 -3 4 4 1 9 -5 11
-7 3 -13 14 -13 24 0 13 4 18 12 13 7 -4 8 -3 4 4 -8 14 -8 14 -22 4z"/>
<path d="M5275 2781 c-3 -5 -2 -12 3 -15 5 -3 9 1 9 9 0 17 -3 19 -12 6z"/>
<path d="M5240 2580 c-9 -6 -10 -10 -3 -10 6 0 15 5 18 10 8 12 4 12 -15 0z"/>
<path d="M5200 2436 c0 -9 5 -16 10 -16 6 0 10 4 10 9 0 6 -4 13 -10 16 -5 3
-10 -1 -10 -9z"/>
<path d="M5201 2354 c0 -11 3 -14 6 -6 3 7 2 16 -1 19 -3 4 -6 -2 -5 -13z"/>
<path d="M5187 2296 c-4 -10 -1 -13 8 -9 8 3 12 9 9 14 -7 12 -11 11 -17 -5z"/>
<path d="M5397 2020 c3 -11 9 -17 15 -14 5 3 4 12 -3 20 -16 19 -18 18 -12 -6z"/>
<path d="M5800 1760 c0 -5 5 -10 11 -10 5 0 7 5 4 10 -3 6 -8 10 -11 10 -2 0
-4 -4 -4 -10z"/>
<path d="M7610 8730 c-6 -11 -8 -20 -6 -20 3 0 10 9 16 20 6 11 8 20 6 20 -3
0 -10 -9 -16 -20z"/>
<path d="M7575 8674 c-9 -15 -12 -23 -6 -20 11 7 35 46 28 46 -3 0 -12 -12
-22 -26z"/>
<path d="M4191 3784 c0 -11 3 -14 6 -6 3 7 2 16 -1 19 -3 4 -6 -2 -5 -13z"/>
<path d="M3840 3716 c0 -2 7 -7 16 -10 8 -3 12 -2 9 4 -6 10 -25 14 -25 6z"/>
<path d="M3630 3651 c-20 -6 -22 -8 -8 -13 9 -4 22 -1 28 8 7 8 11 14 9 13 -2
-1 -15 -4 -29 -8z"/>
<path d="M3590 3259 c0 -5 5 -7 10 -4 6 3 10 8 10 11 0 2 -4 4 -10 4 -5 0 -10
-5 -10 -11z"/>
<path d="M10176 2758 c3 -5 10 -6 15 -3 13 9 11 12 -6 12 -8 0 -12 -4 -9 -9z"/>
<path d="M10448 2243 c7 -3 16 -2 19 1 4 3 -2 6 -13 5 -11 0 -14 -3 -6 -6z"/>
<path d="M5065 1731 c-6 -11 13 -26 22 -17 4 3 1 6 -6 6 -7 0 -9 5 -6 10 3 6
4 10 1 10 -3 0 -7 -4 -11 -9z"/>
<path d="M5078 1692 c-10 -2 -18 -8 -18 -13 0 -6 7 -6 18 0 13 7 23 6 30 -1 8
-8 12 -9 12 -1 0 14 -19 21 -42 15z"/>
<path d="M5164 1638 c-4 -7 -3 -8 4 -4 7 4 12 1 12 -8 0 -9 8 -16 18 -15 10 0
12 3 4 6 -6 2 -10 8 -7 13 3 4 -2 10 -10 14 -8 3 -17 0 -21 -6z"/>
<path d="M5470 1590 c0 -5 5 -10 11 -10 5 0 7 5 4 10 -3 6 -8 10 -11 10 -2 0
-4 -4 -4 -10z"/>
<path d="M5500 1581 c0 -6 4 -13 10 -16 6 -3 7 1 4 9 -7 18 -14 21 -14 7z"/>
<path d="M5620 1534 c0 -8 5 -12 10 -9 6 4 8 11 5 16 -9 14 -15 11 -15 -7z"/>
<path d="M5235 1260 c3 -5 8 -10 11 -10 2 0 4 5 4 10 0 6 -5 10 -11 10 -5 0
-7 -4 -4 -10z"/>
</g>
</svg>
