<?xml version="1.0" standalone="no"?>
<!DOCTYPE svg PUBLIC "-//W3C//DTD SVG 20010904//EN"
 "http://www.w3.org/TR/2001/REC-SVG-20010904/DTD/svg10.dtd">
<svg version="1.0" xmlns="http://www.w3.org/2000/svg"
 width="489.000000pt" height="1280.000000pt" viewBox="0 0 489.000000 1280.000000"
 preserveAspectRatio="xMidYMid meet">
<metadata>
Created by potrace 1.15, written by Peter Selinger 2001-2017
</metadata>
<g transform="translate(0.000000,1280.000000) scale(0.100000,-0.100000)"
fill="#e91e63" stroke="none">
<path d="M2290 12779 c-30 -12 -79 -23 -109 -25 -35 -2 -79 -15 -125 -37 -72
-34 -131 -76 -109 -77 6 0 -18 -30 -55 -68 -113 -114 -267 -277 -267 -282 0
-3 -16 -22 -36 -42 -40 -39 -69 -111 -69 -167 0 -32 3 -29 23 30 22 65 56 122
98 167 22 24 35 29 22 10 -4 -7 5 -5 21 5 15 10 30 16 32 14 3 -3 -14 -41 -37
-85 -23 -44 -45 -101 -49 -126 -7 -49 3 -64 14 -20 4 15 9 24 12 21 3 -3 -6
-40 -21 -82 -15 -44 -23 -85 -20 -98 5 -17 4 -19 -4 -7 -9 12 -11 11 -11 -7 0
-12 -13 -58 -30 -102 -33 -91 -47 -213 -32 -276 10 -40 10 -40 11 22 1 74 16
91 25 28 4 -24 11 -47 17 -50 16 -10 10 -43 -18 -108 l-28 -62 -1 -280 c-1
-301 -7 -352 -57 -457 -14 -29 -32 -78 -41 -108 -20 -72 -38 -244 -34 -331 3
-66 1 -71 -27 -95 -24 -20 -25 -23 -7 -14 39 19 36 4 -7 -31 -49 -39 -47 -50
3 -19 l36 22 0 -30 c0 -35 -35 -206 -46 -223 -4 -8 -3 -10 4 -5 15 9 15 1 0
-27 -10 -19 -9 -20 3 -10 15 12 47 71 70 128 l12 30 8 -30 c36 -138 26 -290
-32 -485 -25 -81 -38 -173 -44 -307 -6 -111 -18 -154 -62 -212 -15 -19 -21
-31 -15 -27 16 9 16 10 -9 -68 -11 -37 -26 -102 -34 -144 -7 -42 -16 -86 -20
-97 -6 -16 -3 -15 14 5 11 14 27 45 35 70 44 141 74 195 142 261 l36 34 -7
-95 c-4 -52 -13 -120 -21 -151 -8 -31 -14 -69 -14 -83 0 -15 -7 -43 -15 -64
l-16 -37 21 20 c11 12 36 66 55 120 36 102 61 147 116 209 46 53 53 47 45 -36
-7 -68 -6 -72 8 -53 16 19 16 19 11 -10 -5 -29 -5 -29 6 -5 6 14 14 75 19 135
11 136 33 223 50 195 5 -8 11 0 15 21 8 33 8 34 17 9 5 -13 11 -60 13 -105 4
-63 3 -73 -5 -47 -6 17 -14 47 -20 65 -8 28 -9 25 -5 -20 7 -66 -6 -225 -15
-198 -4 12 -12 -21 -19 -85 -8 -64 -24 -134 -41 -180 -15 -41 -30 -95 -33
-120 -2 -25 -2 -37 0 -27 2 9 9 17 14 17 6 0 7 -9 4 -20 -3 -11 -4 -20 -1 -20
2 0 14 29 26 65 25 75 36 87 42 45 3 -17 0 -30 -5 -30 -6 0 -8 -28 -4 -72 5
-51 2 -92 -9 -136 -15 -59 -15 -64 3 -100 11 -20 29 -41 41 -47 12 -5 22 -14
22 -20 0 -5 5 -3 10 5 9 13 15 10 40 -17 16 -18 39 -33 51 -33 11 0 49 -8 85
-17 63 -17 64 -17 104 6 l40 22 19 -31 c19 -32 19 -32 -4 -88 -13 -32 -31 -77
-41 -102 -10 -27 -47 -76 -89 -120 -39 -41 -86 -96 -105 -122 -25 -36 -40 -48
-59 -48 -51 0 -158 -215 -186 -376 -18 -99 -21 -300 -5 -319 5 -6 17 -51 25
-98 18 -102 41 -168 121 -337 l59 -125 6 -410 c6 -407 17 -562 64 -921 36
-284 39 -393 16 -629 -21 -224 -35 -297 -111 -580 -39 -147 -43 -172 -48 -318
-7 -232 18 -380 97 -580 17 -42 36 -105 42 -141 12 -63 11 -67 -26 -172 -45
-130 -127 -306 -162 -353 -30 -39 -82 -64 -178 -86 -88 -21 -145 -60 -176
-121 -13 -27 -33 -56 -45 -66 -33 -27 -66 -116 -72 -193 -3 -38 1 -151 8 -250
14 -206 7 -282 -40 -418 -24 -72 -93 -234 -136 -321 -12 -26 -12 -31 2 -47 9
-10 32 -23 51 -30 30 -9 36 -9 48 8 8 10 15 23 15 30 1 56 228 710 249 718 39
15 81 -85 102 -242 15 -110 6 -330 -21 -519 -10 -75 -16 -142 -13 -147 8 -13
175 -91 243 -114 39 -13 85 -18 158 -18 l102 0 -4 -25 c-3 -14 -6 -47 -8 -75
-2 -44 0 -51 22 -62 39 -20 76 -16 92 10 12 18 13 41 6 124 l-9 101 41 83 c56
111 90 163 99 153 5 -5 33 -74 63 -154 51 -132 74 -210 109 -373 12 -57 13
-57 61 -72 79 -23 206 -38 272 -31 68 6 196 64 256 114 34 29 35 33 46 133 6
57 22 143 34 191 15 59 20 97 14 115 -4 16 -8 44 -8 63 -1 30 -6 37 -41 54
-123 60 -123 60 -233 153 -40 35 -92 113 -92 140 0 11 -7 37 -15 57 -15 35
-26 121 -45 337 -4 59 -13 124 -18 145 -6 22 -13 68 -17 103 -3 35 -19 127
-35 205 -39 193 -58 350 -72 605 l-11 217 68 130 c38 71 127 226 199 344 72
118 154 252 181 297 94 156 230 337 339 452 161 170 189 241 206 530 11 185
28 350 60 566 69 472 93 752 94 1075 0 294 -12 408 -63 589 -15 56 -26 111
-24 124 2 12 -6 69 -17 127 -11 58 -27 149 -35 204 -14 103 -26 126 -77 152
-38 19 -45 50 -19 78 23 25 31 60 57 276 8 74 24 193 35 264 13 85 17 156 14
205 -7 89 -15 254 -21 436 -6 151 14 314 47 382 16 33 38 54 99 94 82 53 195
171 231 242 86 167 45 350 -114 509 -70 70 -125 108 -157 108 -20 0 -45 17
-92 64 -68 65 -153 116 -196 116 -27 0 -95 44 -133 87 -22 24 -44 68 -62 123
-17 49 -283 340 -312 340 -8 0 -20 8 -27 18 -7 10 -21 21 -32 25 -13 5 -16 12
-10 25 4 9 9 38 12 64 3 42 1 51 -26 77 -42 43 -46 60 -16 67 13 3 45 29 69
57 l45 52 0 -32 c0 -62 22 -85 35 -36 3 15 12 31 18 35 6 4 14 48 17 100 6 96
38 194 80 248 l20 25 1 -25 c0 -14 6 -47 12 -75 11 -46 12 -43 13 70 0 66 5
132 12 146 6 15 14 127 17 250 8 262 1 313 -67 466 -37 84 -54 109 -119 174
l-76 77 -5 73 c-6 91 -36 163 -77 187 -17 9 -36 27 -42 39 -28 52 -187 131
-279 139 -41 3 -69 -1 -110 -17z m-663 -961 c-3 -7 -5 -2 -5 12 0 14 2 19 5
13 2 -7 2 -19 0 -25z m1153 -1259 c0 -11 5 -17 10 -14 8 5 30 -32 30 -50 0
-15 -32 12 -45 38 -18 35 -19 47 -5 47 6 0 10 -9 10 -21z m-1262 -176 c-2 -9
-8 -18 -15 -20 -7 -3 -9 3 -6 16 6 25 26 28 21 4z m-16 -120 c-5 -56 -21 -93
-22 -53 0 40 12 100 20 100 4 0 5 -21 2 -47z m51 -388 c-13 -74 -19 -94 -24
-75 -14 49 -10 145 7 169 28 40 34 9 17 -94z m-67 -617 c-2 -57 -9 -125 -15
-151 -13 -56 -52 -137 -75 -156 -14 -12 -14 -9 0 25 9 22 19 76 22 122 3 45 9
85 13 88 5 3 9 15 9 27 0 21 40 147 47 147 2 0 2 -46 -1 -102z m168 -30 c-6
-123 -20 -194 -53 -259 -34 -66 -55 -76 -34 -17 9 24 15 70 15 103 0 32 5 71
10 85 5 14 16 48 23 75 16 60 33 105 39 105 3 0 3 -42 0 -92z m-143 -60 c-8
-30 -9 -28 -10 29 -1 34 2 70 7 80 11 28 15 -69 3 -109z m173 15 c-4 -38 -11
-75 -15 -83 -7 -11 -8 -8 -5 10 3 14 8 51 11 83 4 31 8 57 11 57 3 0 2 -30 -2
-67z m-146 -255 l-13 -43 -3 43 c-2 24 3 69 10 100 l13 57 3 -57 c2 -32 -3
-77 -10 -100z m309 -20 c-3 -7 -5 -2 -5 12 0 14 2 19 5 13 2 -7 2 -19 0 -25z
m19 -70 c-4 -46 -7 -96 -7 -112 0 -15 -7 -42 -16 -60 -9 -17 -21 -51 -28 -75
-29 -116 -49 -8 -20 114 14 62 67 215 74 215 2 0 1 -37 -3 -82z m-67 -60 c-13
-40 -25 -64 -27 -55 -4 22 40 156 46 139 2 -7 -7 -45 -19 -84z m74 -165 c-6
-40 -18 -61 -29 -50 -6 6 24 87 32 87 1 0 0 -17 -3 -37z m881 -4258 c1 -75 -3
-97 -21 -130 -24 -45 -101 -123 -89 -90 10 24 32 143 46 246 6 42 16 94 22
115 l11 39 15 -45 c8 -25 15 -85 16 -135z"/>
</g>
</svg>
