<?xml version="1.0" standalone="no"?>
<!DOCTYPE svg PUBLIC "-//W3C//DTD SVG 20010904//EN"
 "http://www.w3.org/TR/2001/REC-SVG-20010904/DTD/svg10.dtd">
<svg version="1.0" xmlns="http://www.w3.org/2000/svg"
 width="563.000000pt" height="1280.000000pt" viewBox="0 0 563.000000 1280.000000"
 preserveAspectRatio="xMidYMid meet">
<metadata>
Created by potrace 1.15, written by Peter Selinger 2001-2017
</metadata>
<g transform="translate(0.000000,1280.000000) scale(0.100000,-0.100000)"
fill="#000000" stroke="none">
<path d="M2538 12766 c-159 -56 -302 -182 -433 -381 -145 -219 -229 -401 -344
-745 -75 -221 -135 -369 -176 -430 -20 -29 -63 -131 -107 -250 -5 -15 -33 -39
-70 -60 -82 -47 -150 -126 -203 -235 -70 -143 -97 -261 -135 -585 -23 -197
-47 -330 -62 -345 -7 -7 -9 1 -6 23 7 47 -9 50 -30 5 -9 -21 -27 -48 -39 -61
-13 -12 -23 -34 -23 -49 0 -14 -7 -35 -16 -45 -9 -10 -16 -30 -15 -45 0 -16 2
-53 3 -83 2 -32 10 -67 20 -82 17 -26 16 -32 -31 -208 -27 -99 -51 -184 -54
-187 -4 -3 -18 2 -31 11 -15 9 -27 12 -31 6 -3 -6 -5 -52 -3 -102 3 -80 -3
-116 -37 -260 -31 -132 -43 -168 -56 -168 -32 0 -41 -25 -18 -54 16 -20 19
-34 14 -59 -12 -58 -16 -67 -34 -67 -29 0 -33 -13 -10 -31 l22 -16 -17 -201
c-10 -113 -15 -233 -12 -274 3 -40 3 -107 -1 -148 l-8 -74 -59 139 c-32 77
-94 214 -138 305 -83 174 -380 732 -386 726 -4 -5 153 -616 209 -811 40 -139
160 -503 225 -683 33 -91 33 -94 14 -99 -26 -7 -26 -7 10 -103 l30 -81 -26
-64 c-23 -58 -25 -69 -13 -96 13 -33 19 -73 19 -130 0 -20 8 -47 18 -60 11
-13 27 -41 37 -63 10 -21 36 -50 57 -65 29 -19 49 -47 78 -107 22 -45 47 -84
56 -88 32 -12 74 -5 101 18 l27 24 28 -35 27 -35 -34 -45 c-50 -66 -49 -111 6
-165 34 -34 39 -44 34 -69 -5 -22 -2 -31 10 -35 26 -10 36 16 19 47 -8 16 -14
34 -14 42 0 7 -11 24 -25 37 -32 30 -32 67 2 102 l27 28 18 -28 c10 -15 18
-39 18 -54 0 -32 13 -42 45 -34 34 9 51 70 24 87 -6 3 -16 27 -24 52 -14 45
-13 48 10 74 l24 28 1 -24 c0 -16 4 -21 15 -17 11 4 15 -2 15 -22 0 -16 7 -37
15 -48 8 -10 15 -27 15 -36 0 -24 40 -24 40 0 0 9 -9 23 -20 30 -19 11 -20 23
-20 175 0 89 -5 181 -10 204 -5 22 -14 77 -19 120 -8 73 -14 89 -74 190 -63
106 -66 114 -77 209 -21 174 6 332 117 689 36 116 76 248 89 294 13 46 31 90
41 98 13 10 15 16 6 19 -20 9 -15 31 7 37 21 5 27 36 10 53 -7 7 3 72 30 199
44 202 43 200 102 289 21 32 37 65 34 73 -3 7 -22 23 -42 35 l-36 21 5 56 c4
31 16 87 27 125 18 56 24 66 34 55 23 -26 45 -123 56 -244 6 -66 20 -163 30
-215 40 -201 43 -246 36 -505 -7 -233 -9 -255 -33 -320 -14 -38 -27 -89 -28
-111 -2 -23 -9 -58 -16 -77 -11 -31 -10 -41 6 -76 10 -23 23 -46 30 -51 8 -7
9 -24 4 -57 -4 -27 -8 -94 -8 -150 -1 -56 -5 -105 -11 -108 -5 -3 -14 -15 -20
-25 -8 -15 -6 -23 8 -37 16 -15 22 -49 35 -193 15 -157 15 -191 2 -326 -23
-236 -33 -488 -24 -619 19 -290 131 -708 330 -1230 191 -504 254 -730 275
-997 l6 -87 -38 -37 c-22 -21 -46 -38 -54 -38 -22 -1 -24 -50 -5 -199 9 -73
21 -242 25 -377 12 -342 29 -455 106 -730 41 -144 44 -164 30 -172 -25 -14
-19 -36 13 -52 36 -19 53 -83 27 -102 -23 -16 -20 -41 6 -55 l22 -12 -23 -8
c-32 -12 -23 -40 19 -60 l34 -17 58 -278 c64 -314 82 -454 73 -564 -7 -84 -23
-158 -39 -179 -14 -19 18 -41 61 -41 18 0 33 -2 33 -4 0 -32 -219 -482 -261
-534 -21 -28 -34 -82 -25 -110 6 -18 94 -72 118 -72 5 0 16 -7 24 -15 9 -8 28
-15 43 -15 16 0 34 -7 41 -15 18 -22 87 -20 101 3 11 17 13 16 39 -10 23 -22
38 -28 73 -28 54 0 108 33 121 75 5 17 22 57 38 89 25 53 28 70 28 161 0 74 4
106 13 114 13 10 23 37 47 128 10 40 12 41 43 36 22 -3 37 0 45 10 7 8 22 13
32 10 11 -3 31 2 45 11 13 9 33 16 45 16 11 0 20 4 20 9 0 5 13 11 29 14 24 5
31 13 36 39 8 40 -4 73 -40 116 -41 49 -143 264 -181 381 -19 58 -34 107 -34
111 0 3 15 4 34 2 18 -2 36 0 39 5 3 4 -1 37 -9 73 -18 87 -17 255 2 365 14
84 91 399 115 473 6 17 16 32 23 32 7 0 25 12 41 26 21 20 26 31 22 53 -3 15
-1 33 5 39 7 7 5 21 -7 46 -17 36 -17 36 10 58 37 29 46 58 29 86 -13 20 -12
32 16 120 73 226 128 506 146 737 3 50 12 108 19 130 7 22 15 65 18 95 3 30
13 101 22 158 19 127 14 142 -52 142 l-45 0 7 68 c30 295 62 436 162 717 35
98 66 181 68 184 3 2 15 -9 27 -24 329 -410 521 -729 617 -1025 60 -182 84
-420 62 -608 -7 -57 -30 -174 -51 -260 -31 -124 -36 -160 -27 -169 10 -10 18
-9 37 4 14 10 39 18 56 19 17 0 51 14 75 32 24 17 73 38 109 47 36 9 95 33
131 55 37 22 86 42 110 46 25 4 60 19 81 35 20 16 45 29 56 29 47 0 79 81 91
231 19 229 -26 522 -113 749 -104 267 -333 638 -598 966 -91 113 -92 117 -4
44 353 -292 610 -522 738 -662 340 -372 404 -611 223 -832 -34 -42 -44 -66
-26 -66 10 0 41 36 84 99 16 23 46 51 68 62 73 37 116 86 170 192 28 56 62
111 75 122 33 28 122 220 139 302 18 85 18 111 0 198 -41 191 -203 414 -493
677 -147 134 -162 147 -527 460 -322 275 -477 419 -607 563 l-108 119 0 133
c0 171 -16 353 -45 530 -51 302 -105 498 -182 663 -24 52 -43 95 -42 95 6 0
-99 156 -128 190 -18 21 -31 45 -28 52 2 8 -6 38 -19 68 -21 45 -32 58 -74 79
-27 14 -52 31 -55 39 -3 8 -41 29 -84 47 -43 17 -86 42 -95 53 -17 21 -72 157
-98 241 -7 23 -11 73 -8 125 3 70 10 99 32 144 15 32 32 55 37 52 14 -9 11
-27 -3 -19 -8 4 -10 3 -5 -2 5 -5 14 -9 20 -9 6 0 22 -18 34 -40 12 -22 23
-36 23 -31 0 14 -41 99 -58 118 -7 9 -11 22 -7 27 10 17 25 13 26 -6 0 -13 3
-11 10 7 l10 25 23 -38 c29 -48 42 -27 21 34 -23 63 -18 60 23 -16 34 -61 37
-75 31 -110 -10 -55 -3 -56 21 -2 l20 46 -20 50 c-11 28 -19 55 -18 59 1 4 -4
25 -11 48 -12 36 -11 44 4 68 23 35 31 33 39 -10 4 -19 15 -43 26 -54 31 -31
53 -126 46 -205 l-6 -70 32 63 c17 34 33 60 35 58 13 -12 -35 -125 -66 -160
l-36 -40 41 32 c40 31 83 102 116 192 12 33 12 34 19 10 6 -24 6 -23 16 10
l10 35 12 -28 c8 -20 8 -41 1 -74 -12 -51 -7 -66 10 -34 24 47 38 24 74 -128
41 -170 42 -181 20 -181 -26 0 -71 -31 -83 -57 -20 -44 -13 -117 15 -159 45
-67 146 -159 213 -192 55 -27 75 -32 137 -32 152 0 251 67 329 223 25 49 45
95 45 102 0 8 9 29 20 48 11 18 32 85 47 148 26 107 31 166 22 264 -1 22 7
110 19 195 12 85 29 205 37 267 9 62 25 143 37 180 20 59 22 90 23 243 0 215
-13 269 -85 340 -25 25 -57 53 -71 62 l-26 16 23 74 c30 100 88 407 78 418 -3
3 -67 6 -142 8 -190 3 -183 1 -176 65 7 68 -41 235 -95 327 -225 381 -290 541
-341 831 -53 306 -150 548 -287 714 -105 128 -213 182 -408 204 -49 5 -112 14
-140 20 -91 18 -203 13 -277 -13z m-633 -857 c-30 -79 -55 -139 -55 -133 0 25
99 288 107 280 2 -1 -22 -68 -52 -147z m1753 -249 c17 -69 33 -134 36 -145 4
-11 -1 -4 -10 15 -21 44 -60 199 -67 265 -6 58 -3 48 41 -135z m470 -1978 c3
-9 -2 -13 -14 -10 -9 1 -19 9 -22 16 -3 9 2 13 14 10 9 -1 19 -9 22 -16z m-28
-267 c0 -2 -11 -30 -26 -62 l-25 -58 -18 41 c-38 85 -39 84 18 84 28 0 51 -2
51 -5z m-793 -407 c-3 -7 -5 -2 -5 12 0 14 2 19 5 13 2 -7 2 -19 0 -25z m1028
-365 c-3 -16 -11 -32 -17 -38 -8 -7 -9 -4 -4 8 3 10 6 27 6 38 0 10 5 19 11
19 7 0 9 -10 4 -27z m-24 -117 c-11 -27 -24 -37 -16 -11 3 8 7 22 10 31 3 9 8
15 11 12 2 -3 0 -17 -5 -32z m-3641 -66 c0 -5 -5 -10 -11 -10 -5 0 -7 5 -4 10
3 6 8 10 11 10 2 0 4 -4 4 -10z m760 -1261 c0 -11 -4 -18 -10 -14 -5 3 -7 12
-3 20 7 21 13 19 13 -6z m-449 -689 c4 -33 16 -77 27 -99 20 -38 20 -40 3 -55
-17 -16 -19 -14 -24 28 -4 24 -12 61 -20 83 -12 37 -12 121 1 108 3 -3 9 -32
13 -65z m2129 -3959 c0 -6 -4 -13 -10 -16 -5 -3 -10 1 -10 9 0 9 5 16 10 16 6
0 10 -4 10 -9z m-40 -147 c0 -8 -4 -14 -10 -14 -5 0 -10 9 -10 21 0 11 5 17
10 14 6 -3 10 -13 10 -21z m0 -62 c0 -13 -39 -46 -46 -39 -9 9 16 47 31 47 8
0 15 -4 15 -8z m-905 -352 c3 -5 1 -10 -4 -10 -6 0 -11 5 -11 10 0 6 2 10 4
10 3 0 8 -4 11 -10z m15 -80 c0 -5 -4 -10 -10 -10 -5 0 -10 5 -10 10 0 6 5 10
10 10 6 0 10 -4 10 -10z"/>
</g>
</svg>
