<?xml version="1.0" standalone="no"?>
<!DOCTYPE svg PUBLIC "-//W3C//DTD SVG 20010904//EN"
 "http://www.w3.org/TR/2001/REC-SVG-20010904/DTD/svg10.dtd">
<svg version="1.0" xmlns="http://www.w3.org/2000/svg"
 width="640.000000pt" height="1280.000000pt" viewBox="0 0 640.000000 1280.000000"
 preserveAspectRatio="xMidYMid meet">
<metadata>
Created by potrace 1.15, written by Peter Selinger 2001-2017
</metadata>
<g transform="translate(0.000000,1280.000000) scale(0.100000,-0.100000)"
fill="#e91e63" stroke="none">
<path d="M2580 12787 c-53 -11 -105 -29 -111 -40 -1 -1 -4 -63 -8 -138 -6
-120 -10 -142 -34 -192 -31 -62 -94 -124 -181 -176 -100 -60 -126 -66 -294
-66 l-154 0 -28 -32 c-42 -46 -54 -120 -47 -288 10 -225 72 -449 152 -543 40
-46 41 -55 18 -108 -9 -22 -29 -79 -44 -129 l-28 -90 -1 50 c-1 91 -51 163
-139 202 -59 26 -192 23 -269 -6 -114 -43 -212 -158 -212 -250 0 -28 -3 -32
-17 -26 -101 43 -176 45 -258 5 -56 -27 -170 -137 -199 -193 l-19 -36 139
-178 c100 -129 218 -302 424 -628 157 -247 289 -456 294 -462 4 -7 3 -13 -2
-13 -6 0 -21 19 -35 43 -28 47 -74 94 -83 84 -34 -34 -43 -749 -20 -1636 l17
-636 -181 -540 c-99 -297 -180 -541 -180 -542 0 -1 27 -34 60 -73 l61 -70 -20
-64 c-72 -234 -68 -473 11 -607 25 -43 117 -137 289 -295 l86 -79 7 -355 c12
-629 9 -1040 -8 -1200 -8 -80 -25 -280 -36 -445 -11 -165 -29 -430 -40 -590
-53 -766 -101 -1179 -145 -1266 -8 -14 -30 -40 -49 -57 -81 -71 -188 -118
-554 -243 -376 -128 -496 -189 -536 -274 -32 -67 8 -141 119 -220 307 -219
680 -312 1475 -367 241 -17 1257 -16 1605 0 710 34 1269 73 1905 132 241 23
870 89 884 93 5 2 -11 9 -35 16 -108 31 -295 103 -419 162 -687 322 -1140 789
-1329 1369 -221 679 -360 1545 -450 2800 -11 151 -23 329 -26 395 -3 66 -8
134 -11 151 -4 28 5 39 124 148 70 64 142 138 160 165 71 103 97 271 68 441
l-16 95 76 70 75 70 -191 655 -191 655 -14 290 c-52 1041 -109 1718 -155 1840
-10 27 -11 27 -30 10 -11 -10 -39 -55 -62 -101 -24 -46 -49 -84 -55 -84 -7 0
-13 2 -13 4 0 3 74 116 163 253 90 136 223 341 295 455 73 114 175 271 228
349 142 210 178 294 156 368 -35 114 -200 91 -377 -53 l-30 -25 0 142 c-1 168
-19 231 -85 291 -99 90 -262 62 -396 -68 -32 -31 -58 -56 -58 -56 -1 0 -2 27
-3 61 -6 161 -93 350 -176 380 l-32 11 0 102 c0 114 -18 165 -71 201 l-30 19
62 121 c102 197 131 338 83 399 -11 14 -25 26 -30 26 -6 0 -43 15 -82 33 -85
40 -157 103 -237 206 -117 153 -166 181 -330 187 -60 2 -133 -2 -170 -9z
m1081 -4932 c33 -220 65 -454 70 -520 4 -66 11 -146 13 -178 l4 -58 -22 24
c-13 14 -112 69 -220 123 l-197 98 6 50 c35 283 125 683 223 996 l26 85 18
-110 c10 -60 45 -290 79 -510z m-1694 330 c55 -157 101 -327 123 -448 23 -126
26 -297 7 -370 -11 -44 -16 -49 -74 -76 -75 -36 -172 -101 -230 -154 -51 -47
-51 -51 -28 123 8 63 35 324 60 580 24 256 47 490 51 520 l6 55 25 -65 c14
-36 41 -110 60 -165z"/>
</g>
</svg>
