<?xml version="1.0" standalone="no"?>
<!DOCTYPE svg PUBLIC "-//W3C//DTD SVG 20010904//EN"
 "http://www.w3.org/TR/2001/REC-SVG-20010904/DTD/svg10.dtd">
<svg version="1.0" xmlns="http://www.w3.org/2000/svg"
 width="989.000000pt" height="1280.000000pt" viewBox="0 0 989.000000 1280.000000"
 preserveAspectRatio="xMidYMid meet">
<metadata>
Created by potrace 1.15, written by Peter Selinger 2001-2017
</metadata>
<g transform="translate(0.000000,1280.000000) scale(0.100000,-0.100000)"
fill="#e91e63" stroke="none">
<path d="M3406 12539 c-91 -13 -248 -58 -276 -78 -14 -10 -50 -26 -80 -36 -30
-9 -79 -31 -108 -47 -67 -38 -232 -194 -232 -219 0 -11 -20 -33 -49 -54 -27
-20 -56 -47 -65 -60 -22 -34 -32 -31 -46 11 -15 43 -20 42 -157 -17 -182 -80
-263 -167 -348 -372 -24 -56 -27 -72 -17 -88 16 -26 -8 -97 -42 -122 -13 -10
-48 -49 -76 -88 l-52 -70 -30 41 c-16 22 -34 40 -39 40 -14 0 -109 -140 -146
-216 -48 -100 -59 -180 -44 -329 l12 -120 -50 -124 c-39 -96 -59 -132 -89
-160 -30 -28 -49 -61 -81 -143 -62 -161 -75 -218 -68 -318 7 -95 39 -222 65
-260 10 -14 33 -58 51 -99 37 -85 86 -164 134 -218 26 -29 37 -53 46 -103 7
-36 23 -106 37 -156 19 -71 24 -117 24 -203 0 -111 18 -275 45 -406 8 -38 26
-133 40 -210 33 -172 67 -341 95 -460 85 -367 199 -521 513 -694 249 -137 455
-219 715 -286 73 -19 144 -42 158 -52 37 -28 135 -329 189 -586 l24 -111 -24
-55 c-25 -62 -60 -176 -69 -231 -17 -102 -136 -337 -411 -810 -386 -666 -504
-855 -812 -1295 -65 -93 -147 -217 -183 -275 -35 -58 -96 -148 -135 -200 -197
-263 -290 -428 -326 -581 -18 -79 -21 -109 -15 -200 16 -249 89 -450 253 -697
108 -162 249 -427 303 -567 43 -113 94 -286 204 -696 103 -380 112 -436 76
-482 -11 -14 -20 -28 -20 -31 0 -3 902 -6 2005 -6 l2005 0 32 63 c46 86 55
128 47 201 -6 52 -3 77 23 166 23 80 30 125 30 190 0 59 7 114 25 180 21 79
24 108 19 175 -6 79 -5 84 48 233 53 146 84 217 73 164 -3 -12 -1 -20 4 -16 5
3 9 20 9 39 0 19 5 46 11 62 6 15 17 48 24 73 12 42 13 32 14 -119 1 -90 4
-161 8 -157 6 5 24 226 24 289 0 10 5 17 12 14 15 -5 27 -72 21 -117 l-5 -35
14 30 13 30 7 -34 c4 -18 7 -62 7 -97 0 -42 5 -67 15 -78 10 -9 15 -35 16 -73
0 -32 7 -80 14 -108 l13 -50 2 105 c2 76 5 94 10 65 l6 -40 5 40 c3 27 8 -1
18 -90 25 -241 29 -260 25 -110 -3 149 -3 150 25 -80 l8 -70 3 80 c4 119 17
159 18 56 1 -46 6 -89 12 -95 5 -5 10 -34 10 -63 0 -29 5 -53 10 -53 6 0 10
24 10 53 0 37 3 48 10 37 7 -11 10 2 10 43 0 64 14 72 18 11 5 -62 9 -50 16
44 11 136 32 151 39 27 3 -49 4 -43 6 30 3 99 6 101 16 10 l7 -59 16 34 16 35
4 -28 c6 -47 -14 -149 -43 -210 -14 -33 -24 -61 -21 -64 3 -3 8 3 12 13 4 10
19 46 35 79 20 44 31 89 39 165 17 151 19 158 15 40 -3 -104 -3 -105 8 -40 10
62 11 63 18 30 l6 -35 3 40 c2 22 3 67 2 100 l-1 60 15 -55 c9 -35 13 -83 10
-130 -3 -50 -2 -61 3 -35 l7 40 8 -60 c9 -73 14 -88 16 -55 3 29 13 -14 30
-119 6 -36 13 -67 16 -70 3 -3 3 16 -1 43 -6 35 -5 47 4 42 6 -4 11 -17 12
-29 0 -21 1 -21 11 3 5 14 8 54 5 90 -3 39 -2 55 3 40 4 -14 8 -21 9 -16 1 6
7 1 15 -10 10 -12 13 -34 10 -64 -7 -73 13 -15 27 77 9 61 9 98 0 157 -18 125
-10 150 10 31 11 -60 17 -130 15 -155 -3 -25 -2 -60 2 -79 l8 -35 13 42 c12
37 12 57 -3 160 -10 64 -24 142 -32 172 -11 41 -12 71 -5 115 l9 60 3 -50 c3
-49 3 -48 10 20 5 54 6 43 4 -50 -2 -80 0 -108 6 -85 6 26 7 18 3 -28 -4 -48
-2 -62 7 -57 9 6 10 -2 5 -31 -4 -23 -3 -34 2 -26 10 15 31 -47 33 -99 2 -30
2 -31 6 -6 9 55 21 24 28 -70 4 -54 13 -134 21 -178 8 -44 14 -96 15 -115 0
-30 2 -32 10 -15 6 14 7 6 3 -27 -3 -27 -1 -48 4 -48 5 0 10 -44 11 -97 1 -54
6 -114 12 -133 5 -19 13 -82 17 -140 l7 -105 554 0 554 0 4 30 c2 17 8 43 13
59 6 16 10 40 10 53 0 30 28 93 41 93 5 0 3 -13 -5 -29 -9 -16 -13 -31 -10
-34 3 -3 1 -14 -4 -24 -5 -10 -12 -33 -15 -51 l-7 -33 25 30 c31 36 87 157
127 271 34 99 63 271 72 420 11 195 -37 441 -129 660 -45 109 -74 200 -69 215
14 35 -32 403 -72 584 -13 62 -23 116 -20 118 2 2 14 -40 26 -94 111 -499 162
-657 338 -1048 27 -60 58 -138 67 -172 10 -35 21 -63 25 -63 4 0 7 25 6 55 0
32 -4 49 -9 42 -5 -7 -6 -4 -3 9 4 11 -5 53 -19 94 -14 40 -23 76 -20 78 3 3
10 -9 16 -27 6 -18 13 -30 15 -28 2 2 -41 143 -97 313 -221 680 -273 886 -399
1584 -130 718 -187 918 -419 1470 -221 525 -243 590 -406 1175 -141 507 -222
650 -598 1064 -193 212 -233 277 -420 671 -35 74 -110 208 -166 298 -150 239
-198 325 -205 368 -3 22 -15 206 -26 409 -28 495 -49 655 -121 903 -31 109
-99 312 -144 435 -35 95 -30 105 10 22 40 -81 43 -81 15 0 -23 67 -25 91 -7
98 7 4 6 6 -4 6 -21 1 -33 41 -13 41 8 0 14 7 14 15 0 12 7 14 28 10 23 -5 24
-4 9 5 -9 6 -15 16 -12 21 4 5 -3 24 -14 43 -15 23 -21 50 -21 88 0 39 -10 78
-35 138 -19 47 -35 91 -35 99 0 8 -14 38 -30 68 -23 40 -37 88 -56 191 -59
323 -102 444 -217 615 -85 125 -141 175 -215 192 -35 7 -37 9 -123 143 -78
120 -211 259 -313 326 -118 79 -284 145 -441 176 -39 8 -76 24 -107 46 -177
130 -406 227 -573 244 -49 5 -119 15 -155 24 -70 16 -281 37 -352 35 -24 -1
-69 -5 -102 -10z m2779 -2409 c4 -6 -5 -10 -20 -10 -15 0 -24 4 -20 10 3 6 12
10 20 10 8 0 17 -4 20 -10z m62 -1192 c-3 -8 -6 -5 -6 6 -1 11 2 17 5 13 3 -3
4 -12 1 -19z m8 -801 c11 -56 12 -87 5 -87 -13 0 -30 51 -30 91 0 47 16 44 25
-4z m-4113 -314 c23 -49 63 -121 90 -161 70 -103 70 -109 12 -79 -80 41 -100
70 -119 167 -9 47 -20 102 -24 123 -5 20 -7 37 -4 37 2 0 23 -39 45 -87z
m4588 -588 c18 -33 26 -54 17 -47 -14 12 -57 93 -57 109 0 9 2 5 40 -62z m660
-1085 c11 -22 18 -40 15 -40 -2 0 -14 18 -25 40 -11 22 -18 40 -15 40 2 0 14
-18 25 -40z m749 -1890 c0 -9 -4 -8 -9 5 -5 11 -9 27 -9 35 0 9 4 8 9 -5 5
-11 9 -27 9 -35z m288 -432 c-3 -8 -6 -5 -6 6 -1 11 2 17 5 13 3 -3 4 -12 1
-19z m100 -990 c-3 -8 -6 -5 -6 6 -1 11 2 17 5 13 3 -3 4 -12 1 -19z m10 -40
c-3 -8 -6 -5 -6 6 -1 11 2 17 5 13 3 -3 4 -12 1 -19z m37 -132 c15 -59 26
-115 25 -124 -1 -18 -58 203 -59 227 -1 32 10 -1 34 -103z m45 -356 c24 -92
44 -192 48 -245 5 -63 9 -81 13 -60 5 24 8 17 11 -32 2 -33 1 -59 -3 -56 -5 2
-8 11 -8 19 0 8 -8 31 -19 52 -10 20 -30 89 -44 152 -26 114 -88 471 -86 493
1 7 11 -28 24 -78 12 -49 41 -160 64 -245z m58 198 c-3 -8 -6 -5 -6 6 -1 11 2
17 5 13 3 -3 4 -12 1 -19z m10 -40 c-3 -8 -6 -5 -6 6 -1 11 2 17 5 13 3 -3 4
-12 1 -19z m10 -40 c-3 -8 -6 -5 -6 6 -1 11 2 17 5 13 3 -3 4 -12 1 -19z m10
-40 c-3 -8 -6 -5 -6 6 -1 11 2 17 5 13 3 -3 4 -12 1 -19z m61 -618 l-1 -45 -7
55 c-5 30 -8 78 -8 105 l1 50 7 -60 c4 -33 8 -80 8 -105z m178 -17 c9 -32 36
-111 61 -177 24 -65 42 -120 40 -123 -5 -5 -69 161 -96 252 -12 39 -24 78 -27
88 -3 9 -3 17 0 17 3 0 13 -26 22 -57z m-1379 -20 c-3 -10 -5 -4 -5 12 0 17 2
24 5 18 2 -7 2 -21 0 -30z m-850 -150 c-3 -10 -5 -2 -5 17 0 19 2 27 5 18 2
-10 2 -26 0 -35z m660 -160 c-2 -16 -4 -5 -4 22 0 28 2 40 4 28 2 -13 2 -35 0
-50z m1413 -588 c10 -38 26 -87 34 -107 18 -42 22 -103 6 -93 -6 4 -10 -9 -10
-32 0 -21 -2 -49 -5 -63 -3 -14 2 -7 10 15 l15 40 -6 -40 c-3 -22 -9 -42 -13
-45 -5 -3 -10 -41 -13 -85 -4 -57 -3 -71 3 -47 5 17 12 32 15 32 8 0 0 -33
-19 -84 l-14 -39 -1 54 c-1 99 -22 263 -48 371 -23 93 -25 118 -19 195 l8 88
19 -45 c10 -24 28 -76 38 -115z m-1393 113 c-3 -8 -6 -5 -6 6 -1 11 2 17 5 13
3 -3 4 -12 1 -19z m-90 -35 c-3 -10 -5 -4 -5 12 0 17 2 24 5 18 2 -7 2 -21 0
-30z m100 -35 c-3 -7 -5 -2 -5 12 0 14 2 19 5 13 2 -7 2 -19 0 -25z m-90 -35
c-3 -10 -5 -4 -5 12 0 17 2 24 5 18 2 -7 2 -21 0 -30z m1514 -389 l-9 -39 -1
36 c-1 20 2 39 6 42 12 13 13 0 4 -39z m16 -26 c-3 -8 -6 -5 -6 6 -1 11 2 17
5 13 3 -3 4 -12 1 -19z m50 -50 c-3 -8 -6 -5 -6 6 -1 11 2 17 5 13 3 -3 4 -12
1 -19z m-241 -89 c7 -30 13 -81 13 -114 l-1 -60 -23 110 c-20 97 -23 136 -8
122 2 -3 11 -29 19 -58z m44 47 c9 -49 9 -107 1 -126 -10 -24 -10 -24 -11 10
-1 57 -6 100 -13 107 -12 12 -7 22 8 17 8 -4 15 -7 15 -8z"/>
<path d="M9162 1195 c0 -5 6 -26 13 -45 7 -19 14 -28 14 -20 0 8 -6 29 -14 45
-7 17 -13 26 -13 20z"/>
<path d="M9191 1094 c0 -11 3 -14 6 -6 3 7 2 16 -1 19 -3 4 -6 -2 -5 -13z"/>
<path d="M9181 1054 c0 -11 3 -14 6 -6 3 7 2 16 -1 19 -3 4 -6 -2 -5 -13z"/>
<path d="M9201 1060 c0 -8 4 -24 9 -35 5 -13 9 -14 9 -5 0 8 -4 24 -9 35 -5
13 -9 14 -9 5z"/>
<path d="M9221 984 c0 -11 3 -14 6 -6 3 7 2 16 -1 19 -3 4 -6 -2 -5 -13z"/>
<path d="M9191 944 c0 -11 3 -14 6 -6 3 7 2 16 -1 19 -3 4 -6 -2 -5 -13z"/>
<path d="M9232 920 c0 -25 3 -67 8 -95 l7 -50 1 50 c0 28 -3 70 -7 95 l-8 45
-1 -45z"/>
<path d="M9201 904 c0 -11 3 -14 6 -6 3 7 2 16 -1 19 -3 4 -6 -2 -5 -13z"/>
<path d="M7172 885 c0 -16 2 -22 5 -12 2 9 2 23 0 30 -3 6 -5 -1 -5 -18z"/>
<path d="M7521 884 c0 -11 3 -14 6 -6 3 7 2 16 -1 19 -3 4 -6 -2 -5 -13z"/>
<path d="M7146 809 c-9 -23 -15 -43 -13 -46 3 -2 12 15 21 38 9 23 15 43 13
46 -3 2 -12 -15 -21 -38z"/>
<path d="M7425 807 c-7 -47 0 -87 16 -87 7 0 2 118 -7 128 -1 2 -6 -16 -9 -41z"/>
<path d="M9253 735 c0 -22 2 -30 4 -17 2 12 2 30 0 40 -3 9 -5 -1 -4 -23z"/>
<path d="M7371 703 c-1 -6 -4 -20 -7 -30 -5 -17 -5 -17 6 0 6 10 9 23 6 30 -3
9 -5 9 -5 0z"/>
<path d="M9241 674 c0 -11 3 -14 6 -6 3 7 2 16 -1 19 -3 4 -6 -2 -5 -13z"/>
<path d="M6987 581 c-4 -17 -3 -21 5 -13 5 5 8 16 6 23 -3 8 -7 3 -11 -10z"/>
<path d="M7602 210 c0 -14 2 -19 5 -12 2 6 2 18 0 25 -3 6 -5 1 -5 -13z"/>
<path d="M7612 135 c0 -16 2 -22 5 -12 2 9 2 23 0 30 -3 6 -5 -1 -5 -18z"/>
</g>
</svg>
