<?xml version="1.0" standalone="no"?>
<!DOCTYPE svg PUBLIC "-//W3C//DTD SVG 20010904//EN"
 "http://www.w3.org/TR/2001/REC-SVG-20010904/DTD/svg10.dtd">
<svg version="1.0" xmlns="http://www.w3.org/2000/svg"
 width="566.000000pt" height="1280.000000pt" viewBox="0 0 566.000000 1280.000000"
 preserveAspectRatio="xMidYMid meet">
<metadata>
Created by potrace 1.15, written by Peter Selinger 2001-2017
</metadata>
<g transform="translate(0.000000,1280.000000) scale(0.100000,-0.100000)"
fill="#000000" stroke="none">
<path d="M3000 12244 c-19 -9 -64 -22 -99 -30 -74 -16 -133 -44 -176 -83 -16
-16 -57 -46 -90 -69 -104 -70 -141 -118 -215 -287 -24 -55 -45 -102 -47 -104
-2 -2 -14 1 -28 7 -19 9 -27 8 -40 -4 -8 -9 -15 -21 -15 -27 0 -7 -9 -21 -21
-30 -19 -17 -20 -26 -16 -150 l5 -132 -65 -144 c-72 -157 -71 -150 -43 -301 6
-30 7 -78 4 -106 -4 -39 -2 -53 10 -63 9 -8 16 -22 16 -32 0 -10 4 -20 8 -23
11 -7 -6 -202 -25 -266 -8 -30 -17 -89 -20 -130 -5 -70 -3 -80 26 -137 17 -35
31 -73 31 -85 -1 -34 -76 -78 -160 -94 -73 -14 -110 -29 -110 -44 0 -5 5 -20
11 -34 9 -20 7 -40 -9 -103 -12 -43 -27 -122 -35 -176 -8 -54 -17 -100 -20
-103 -7 -8 -60 21 -78 42 -10 12 -15 54 -17 155 l-4 138 -31 6 c-38 7 -106
-14 -121 -37 -7 -12 -5 -32 7 -72 14 -43 15 -60 7 -77 -6 -11 -9 -26 -7 -33 3
-8 -7 -29 -22 -47 -54 -66 -64 -96 -58 -177 3 -41 8 -77 12 -80 9 -9 93 78
110 114 8 18 15 56 16 86 l1 53 21 -45 c40 -86 22 -204 -43 -274 l-38 -41 13
-50 c7 -28 18 -97 25 -155 12 -104 12 -106 -14 -170 -15 -36 -35 -76 -45 -89
l-18 -24 -14 44 c-12 39 -18 44 -43 44 -51 0 -54 -22 -22 -146 33 -129 32
-212 -3 -260 -24 -32 -26 -51 -10 -77 9 -14 6 -43 -15 -128 -43 -182 -36 -227
51 -304 75 -66 337 -188 523 -243 85 -25 173 -49 195 -53 22 -3 61 -15 87 -26
46 -19 46 -20 34 -49 -7 -16 -31 -49 -53 -75 -84 -92 -140 -296 -91 -327 14
-9 23 -6 48 18 l30 29 0 -30 c0 -19 -17 -55 -44 -96 -39 -60 -116 -248 -116
-283 0 -8 -21 -38 -46 -66 l-47 -53 7 -97 c5 -73 3 -113 -8 -156 -9 -32 -20
-104 -27 -158 -6 -55 -16 -103 -22 -107 -6 -4 -30 -10 -52 -13 -58 -9 -75 -15
-75 -27 0 -5 27 -49 60 -96 l59 -87 0 -197 c-1 -108 2 -201 5 -206 3 -5 10
-110 16 -233 6 -123 15 -253 21 -289 24 -149 26 -206 19 -415 -7 -194 -11
-230 -34 -308 -14 -48 -26 -95 -26 -103 0 -9 -17 -55 -39 -103 -127 -283 -151
-402 -176 -876 -28 -532 -63 -724 -164 -900 -66 -115 -181 -356 -181 -379 0
-57 -179 -309 -253 -356 -24 -15 -51 -36 -58 -46 -18 -24 -59 -59 -59 -51 0 3
12 18 27 32 18 16 23 25 13 25 -8 0 -26 -15 -39 -33 -13 -18 -43 -48 -67 -67
-50 -40 -54 -61 -23 -114 46 -78 135 -95 287 -57 43 11 110 27 149 35 40 8 96
26 124 41 53 26 119 84 119 104 0 6 5 11 12 11 6 0 8 3 5 7 -4 3 -1 13 6 21 9
13 9 14 -1 8 -6 -4 -12 -3 -12 2 0 6 -7 13 -16 16 -10 4 -13 2 -8 -7 6 -9 5
-9 -7 0 -12 10 -18 10 -28 0 -7 -6 0 15 17 48 16 33 37 84 47 113 33 102 161
203 261 206 23 0 40 3 38 5 -2 2 18 17 45 32 28 16 62 45 78 66 24 31 28 46
28 97 0 63 -4 73 -75 201 -32 58 -33 64 -33 170 l0 110 66 175 c129 345 206
522 251 575 l26 30 0 -40 c0 -52 -15 -314 -40 -695 -10 -168 -22 -360 -26
-427 l-6 -123 27 -10 c14 -5 47 -10 72 -10 25 0 75 -5 111 -12 58 -11 66 -10
77 5 8 12 27 17 60 17 l48 0 -8 -97 c-8 -122 -22 -228 -24 -189 -1 23 -4 26
-14 17 -11 -8 -16 -5 -25 15 -7 14 -16 23 -21 19 -5 -3 -12 4 -16 15 -4 13
-18 23 -36 27 -16 3 -29 11 -29 17 0 11 -18 23 -72 48 -16 7 -28 16 -28 20 0
4 -7 8 -15 8 -8 0 -15 4 -15 9 0 5 -10 11 -22 13 -13 2 -22 9 -20 16 1 8 -2
11 -7 8 -5 -4 -11 -3 -14 1 -2 5 -2 3 -1 -4 2 -6 -6 -11 -16 -10 -15 1 -17 4
-7 16 9 12 9 13 -1 7 -7 -4 -15 -1 -18 9 -6 15 -8 14 -25 0 -16 -16 -17 -16
-12 4 3 12 1 21 -5 21 -6 0 -18 3 -28 7 -14 5 -16 3 -11 -12 7 -16 5 -16 -9
-4 -15 12 -14 14 4 22 12 5 23 15 26 22 3 9 -4 8 -25 -3 -16 -9 -29 -23 -29
-31 0 -8 -6 -11 -15 -7 -9 3 -15 0 -15 -9 0 -8 -23 -39 -52 -68 -28 -28 -51
-55 -50 -59 1 -4 -4 -5 -11 -3 -12 5 -16 -18 -17 -99 0 -16 -5 -35 -11 -43 -9
-9 -7 -14 6 -19 12 -5 13 -9 5 -14 -17 -10 -3 -31 15 -23 11 3 15 -2 15 -17 0
-16 4 -20 15 -16 14 5 19 -4 16 -31 -1 -6 8 -14 19 -18 11 -3 20 -12 20 -18 0
-7 9 -19 19 -26 11 -8 17 -21 13 -29 -3 -10 -1 -13 6 -8 6 4 17 -5 26 -21 8
-15 15 -25 16 -21 0 3 13 -7 30 -23 17 -18 35 -27 42 -23 8 5 9 2 5 -9 -6 -16
14 -23 46 -18 4 0 6 -5 5 -11 -2 -8 7 -12 25 -11 15 1 27 -3 27 -8 0 -6 6 -7
12 -2 21 12 38 12 38 -1 0 -8 12 -11 36 -8 20 3 34 1 31 -4 -3 -5 13 -10 34
-11 22 0 46 -6 53 -12 19 -16 40 -10 48 14 5 15 6 13 7 -11 1 -36 53 -118 92
-147 57 -41 165 -41 176 1 4 17 91 67 100 58 3 -2 7 -23 10 -45 8 -58 22 -66
80 -47 26 9 96 19 156 24 106 7 107 7 107 -14 0 -42 64 -46 109 -8 20 17 31
21 31 12 0 -8 22 -36 49 -62 43 -42 48 -52 39 -69 -7 -14 -7 -17 1 -13 6 4 11
3 11 -3 0 -5 -4 -12 -9 -16 -9 -5 -8 -27 4 -65 3 -10 19 -23 35 -30 17 -7 30
-17 30 -22 0 -5 4 -6 10 -3 5 3 10 1 10 -4 0 -6 6 -11 14 -11 8 0 21 -8 28
-17 7 -10 25 -24 39 -31 15 -8 38 -25 53 -38 53 -50 160 -126 217 -155 33 -16
89 -49 124 -74 39 -26 85 -48 119 -56 50 -11 62 -10 123 10 49 17 78 34 105
62 21 21 41 39 45 39 5 0 15 20 22 45 7 25 18 45 23 45 6 0 7 20 3 53 -9 62
-64 158 -114 196 -165 127 -178 141 -291 311 -153 228 -189 395 -145 670 8 52
26 169 40 260 14 91 31 192 39 225 30 128 91 487 107 633 14 128 7 316 -18
502 -22 165 -22 349 -1 735 9 160 22 261 58 450 25 136 47 288 60 420 6 61 15
130 20 155 5 25 16 99 26 166 16 119 17 120 50 140 123 71 161 99 186 137 15
23 37 53 48 67 11 14 27 54 35 88 8 34 26 84 39 110 42 85 49 117 36 175 -6
28 -15 162 -20 297 -5 135 -14 261 -20 280 -15 50 -60 280 -60 310 0 14 -9 48
-19 75 -23 61 -65 279 -58 299 3 7 -1 23 -9 35 -21 29 -40 199 -25 223 16 25
14 42 -9 71 -24 30 -27 118 -6 159 12 23 12 30 -4 55 -10 17 -21 45 -25 64
-10 46 -56 178 -95 269 -18 41 -36 87 -40 101 l-8 27 50 -31 c46 -29 52 -30
75 -17 45 26 51 46 21 77 -67 73 -75 153 -28 300 17 51 30 98 30 103 0 6 -11
16 -25 22 -22 10 -29 8 -53 -15 -16 -15 -31 -27 -34 -27 -3 0 -8 22 -12 49 -5
40 0 66 30 152 20 57 47 125 61 151 l26 47 -17 61 c-21 73 -14 171 15 238 19
46 46 61 29 16 -24 -63 -3 -154 53 -229 15 -19 16 -18 35 25 33 77 35 112 11
182 -33 97 -32 144 4 201 25 40 28 52 19 71 -11 25 -69 56 -110 59 -25 2 -28
-4 -67 -113 -43 -121 -79 -188 -117 -214 -41 -29 -45 -22 -35 57 5 39 7 151 4
249 -4 150 -3 180 11 199 14 21 14 23 -11 45 -15 12 -52 27 -84 34 -62 12 -80
19 -129 50 -19 12 -64 24 -115 31 -46 5 -84 11 -85 12 -1 1 0 23 3 48 5 46 6
47 47 53 69 11 86 29 86 87 0 48 -1 51 -22 45 -13 -3 -49 -9 -80 -13 -52 -5
-58 -4 -58 12 0 10 -7 27 -16 36 -11 12 -20 51 -27 115 -9 92 -9 98 11 113 20
16 20 18 5 96 -8 44 -21 95 -29 113 -17 39 -19 122 -3 122 7 0 8 11 4 31 -5
22 -4 29 4 25 7 -5 12 2 12 16 5 69 8 117 9 148 1 29 3 31 10 15 5 -12 6 4 3
40 -3 33 -10 68 -15 78 -10 19 -3 53 16 76 11 14 16 71 6 71 -3 -1 -16 -7 -30
-15 -40 -23 -45 -18 -47 38 -1 28 -7 80 -12 115 -9 55 -8 71 9 123 16 45 20
81 18 137 l-3 77 -34 -62 c-32 -61 -51 -78 -51 -49 0 7 -9 25 -20 39 -11 14
-21 34 -23 45 -4 26 -26 52 -43 52 -8 0 -14 6 -14 14 0 23 -38 63 -67 71 -16
3 -45 19 -65 36 -20 16 -45 29 -55 29 -10 0 -42 9 -71 20 -30 11 -77 20 -110
20 -31 0 -86 9 -120 20 -76 24 -86 24 -132 4z m-769 -1811 c-8 -15 -10 -15
-11 -2 0 17 10 32 18 25 2 -3 -1 -13 -7 -23z m-14 -45 c-3 -8 -6 -5 -6 6 -1
11 2 17 5 13 3 -3 4 -12 1 -19z m-5 -97 c2 -22 0 -37 -4 -35 -8 5 -11 74 -4
74 2 0 6 -18 8 -39z m-542 -662 c0 -5 -4 -9 -10 -9 -5 0 -10 7 -10 16 0 8 5
12 10 9 6 -3 10 -10 10 -16z m2910 5 c0 -8 -5 -12 -10 -9 -6 4 -8 11 -5 16 9
14 15 11 15 -7z m-2709 -207 c-16 -16 -26 20 -10 40 13 15 14 14 17 -7 2 -12
-1 -27 -7 -33z m2439 -62 c0 -34 -2 -37 -14 -25 -9 10 -12 29 -9 54 7 48 23
28 23 -29z m-2446 -47 c-7 -100 -14 -119 -39 -98 -10 9 -15 31 -15 73 0 52 4
65 27 89 15 15 28 28 30 28 2 0 1 -42 -3 -92z m-56 -320 c-13 -40 -28 -59 -28
-35 0 21 21 67 31 67 4 0 3 -15 -3 -32z m447 -8 c-4 -6 -7 -58 -6 -117 0 -125
17 -192 71 -283 20 -36 41 -80 45 -99 4 -20 14 -35 25 -38 14 -4 26 -30 45
-92 15 -47 40 -120 56 -161 38 -97 55 -158 74 -255 20 -106 20 -139 -1 -131
-9 3 -27 9 -40 12 -14 4 -29 14 -34 24 -6 11 -17 16 -29 13 -10 -2 -37 5 -60
16 -38 20 -41 25 -41 62 0 49 -21 61 -54 30 -28 -26 -42 -26 -83 -1 -23 14
-35 31 -43 62 -7 24 -18 53 -26 66 l-15 23 -36 -26 -35 -27 -39 18 c-22 9 -54
35 -71 57 -21 27 -37 37 -49 34 -11 -3 -21 -1 -24 4 -6 9 59 144 74 153 5 4
22 1 38 -5 24 -9 30 -7 47 13 32 39 103 201 116 264 6 32 14 67 16 76 3 9 -4
26 -16 38 l-20 20 30 60 c25 50 58 130 75 188 3 6 7 12 10 12 4 0 3 -5 0 -10z
m1873 -1290 c89 -202 220 -551 281 -745 40 -127 60 -298 41 -354 -15 -45 -8
-91 22 -159 18 -41 21 -67 22 -192 1 -152 -11 -215 -53 -269 -15 -19 -21 -22
-38 -13 -19 11 -21 25 -27 224 -6 176 -5 219 7 248 8 19 25 73 38 119 l22 84
-27 24 c-15 12 -47 28 -72 34 -24 6 -44 16 -44 22 0 38 -48 176 -75 216 -46
66 -50 84 -22 96 12 6 26 20 32 33 11 26 18 27 35 7 18 -22 39 -18 50 9 17 45
-55 254 -115 332 -14 18 -25 42 -25 53 0 11 -8 25 -19 30 -10 6 -21 21 -25 34
-11 46 -95 216 -117 238 -19 19 -22 33 -22 94 0 40 4 83 8 96 7 22 9 21 20
-16 7 -22 53 -132 103 -245z m-1713 -180 c3 -5 2 -10 -4 -10 -5 0 -13 5 -16
10 -3 6 -2 10 4 10 5 0 13 -4 16 -10z m1737 -52 c-7 -7 -12 -8 -12 -2 0 14 12
26 19 19 2 -3 -1 -11 -7 -17z m-2 -37 c0 -6 -4 -13 -10 -16 -5 -3 -10 1 -10 9
0 9 5 16 10 16 6 0 10 -4 10 -9z m360 -1485 c0 -3 -4 -8 -10 -11 -5 -3 -10 -1
-10 4 0 6 5 11 10 11 6 0 10 -2 10 -4z m-65 -234 c-6 -4 -22 -18 -37 -31 -20
-17 -28 -20 -28 -10 0 8 12 22 28 31 27 18 55 25 37 10z m-787 -3327 c25 -237
39 -393 47 -530 6 -86 3 -118 -21 -230 -38 -186 -38 -183 -19 -224 15 -34 15
-42 2 -81 l-14 -42 -6 30 c-7 35 -97 105 -97 75 0 -9 -2 -14 -5 -11 -3 3 10
241 30 529 48 711 47 701 55 692 4 -4 17 -98 28 -208z m-1634 -630 c-7 -16
-24 -21 -24 -6 0 8 7 13 27 20 1 1 0 -6 -3 -14z"/>
<path d="M2140 2006 c0 -31 6 -34 13 -6 3 11 1 23 -4 26 -5 3 -9 -6 -9 -20z"/>
<path d="M1254 1635 c-4 -8 -11 -12 -17 -8 -6 4 -8 0 -4 -10 3 -10 2 -17 -4
-17 -11 0 -38 -24 -42 -37 -4 -16 -64 -62 -72 -55 -5 4 -5 1 -1 -6 6 -9 17 -5
42 18 19 16 39 30 44 30 11 0 43 33 72 73 17 23 17 27 3 27 -8 0 -18 -7 -21
-15z"/>
</g>
</svg>
